<svg width="330" height="130" viewBox="0 0 330 130" fill="none" xmlns="http://www.w3.org/2000/svg">
<rect x="0.458333" y="0.458333" width="329.083" height="129.083" rx="9.54167" fill="white"/>
<rect x="0.458333" y="0.458333" width="329.083" height="129.083" rx="9.54167" stroke="#E4E7EC" stroke-width="0.916667"/>
<rect x="275" y="18.3359" width="36.6667" height="36.6667" rx="18.3333" fill="#FC8851" fill-opacity="0.1"/>
<path d="M294.919 28.8913L296.532 32.1179C296.752 32.5671 297.339 32.9979 297.834 33.0804L300.758 33.5662C302.628 33.8779 303.068 35.2346 301.721 36.5729L299.447 38.8462C299.062 39.2312 298.852 39.9738 298.971 40.5054L299.622 43.3196C300.135 45.5471 298.952 46.4088 296.982 45.2446L294.241 43.6221C293.746 43.3288 292.93 43.3288 292.426 43.6221L289.685 45.2446C287.723 46.4088 286.532 45.5379 287.045 43.3196L287.696 40.5054C287.815 39.9738 287.604 39.2312 287.219 38.8462L284.946 36.5729C283.607 35.2346 284.038 33.8779 285.908 33.5662L288.832 33.0804C289.318 32.9979 289.905 32.5671 290.125 32.1179L291.738 28.8913C292.618 27.1404 294.048 27.1404 294.919 28.8913Z" stroke="#FC8851" stroke-width="1.375" stroke-linecap="round" stroke-linejoin="round"/>
<path d="M24.4255 34.8193H27.4413V36H22.9625V27.0808H24.4255V34.8193ZM31.732 36.1155C31.0646 36.1155 30.4615 35.9658 29.9225 35.6663C29.3835 35.3583 28.96 34.9306 28.652 34.383C28.344 33.8269 28.19 33.1852 28.19 32.458C28.19 31.7393 28.3483 31.1019 28.6648 30.5458C28.9814 29.9897 29.4134 29.5619 29.961 29.2625C30.5085 28.9631 31.1203 28.8133 31.7961 28.8133C32.472 28.8133 33.0838 28.9631 33.6313 29.2625C34.1789 29.5619 34.6109 29.9897 34.9275 30.5458C35.244 31.1019 35.4023 31.7393 35.4023 32.458C35.4023 33.1767 35.2398 33.8141 34.9146 34.3702C34.5895 34.9263 34.1446 35.3583 33.58 35.6663C33.0239 35.9658 32.4079 36.1155 31.732 36.1155ZM31.732 34.845C32.1084 34.845 32.4592 34.7552 32.7843 34.5755C33.118 34.3958 33.3875 34.1263 33.5928 33.767C33.7981 33.4077 33.9008 32.9713 33.9008 32.458C33.9008 31.9447 33.8024 31.5126 33.6056 31.1618C33.4089 30.8025 33.1479 30.533 32.8228 30.3533C32.4977 30.1737 32.1469 30.0838 31.7705 30.0838C31.394 30.0838 31.0433 30.1737 30.7181 30.3533C30.4016 30.533 30.1492 30.8025 29.961 31.1618C29.7728 31.5126 29.6786 31.9447 29.6786 32.458C29.6786 33.2194 29.8711 33.8098 30.2561 34.229C30.6497 34.6397 31.1416 34.845 31.732 34.845ZM43.2139 28.9288L38.8762 39.3238H37.3619L38.7992 35.8845L36.0144 28.9288H37.6442L39.6334 34.3188L41.6996 28.9288H43.2139ZM43.8303 32.4323C43.8303 31.7222 43.9757 31.0934 44.2666 30.5458C44.5661 29.9983 44.9682 29.5748 45.473 29.2753C45.9863 28.9673 46.551 28.8133 47.167 28.8133C47.7231 28.8133 48.2065 28.9246 48.6171 29.147C49.0364 29.3609 49.37 29.6304 49.6181 29.9555V28.9288H51.094V36H49.6181V34.9477C49.37 35.2813 49.0321 35.5594 48.6043 35.7818C48.1765 36.0043 47.6889 36.1155 47.1413 36.1155C46.5339 36.1155 45.9777 35.9615 45.473 35.6535C44.9682 35.3369 44.5661 34.9006 44.2666 34.3445C43.9757 33.7798 43.8303 33.1424 43.8303 32.4323ZM49.6181 32.458C49.6181 31.9703 49.5155 31.5468 49.3101 31.1875C49.1134 30.8282 48.8524 30.5544 48.5273 30.3662C48.2022 30.1779 47.8514 30.0838 47.475 30.0838C47.0985 30.0838 46.7477 30.1779 46.4226 30.3662C46.0975 30.5458 45.8323 30.8153 45.627 31.1747C45.4302 31.5254 45.3318 31.9447 45.3318 32.4323C45.3318 32.92 45.4302 33.3478 45.627 33.7157C45.8323 34.0836 46.0975 34.3659 46.4226 34.5627C46.7563 34.7509 47.1071 34.845 47.475 34.845C47.8514 34.845 48.2022 34.7509 48.5273 34.5627C48.8524 34.3744 49.1134 34.1007 49.3101 33.7413C49.5155 33.3734 49.6181 32.9457 49.6181 32.458ZM54.4786 26.5033V36H53.0156V26.5033H54.4786ZM58.1062 30.1223V34.0365C58.1062 34.3017 58.1661 34.4942 58.2859 34.614C58.4142 34.7252 58.6281 34.7808 58.9275 34.7808H59.8259V36H58.6709C58.0121 36 57.5073 35.846 57.1565 35.538C56.8057 35.23 56.6304 34.7295 56.6304 34.0365V30.1223H55.7962V28.9288H56.6304V27.1707H58.1062V28.9288H59.8259V30.1223H58.1062ZM67.5396 28.9288L63.2019 39.3238H61.6876L63.1249 35.8845L60.3401 28.9288H61.9699L63.9591 34.3188L66.0253 28.9288H67.5396ZM78.2143 29.7373C78.2143 30.1908 78.1074 30.6186 77.8935 31.0207C77.6796 31.4228 77.3374 31.7522 76.8668 32.0088C76.3963 32.2569 75.7931 32.381 75.0573 32.381H73.4403V36H71.9773V27.0808H75.0573C75.7418 27.0808 76.3193 27.2006 76.7898 27.4402C77.2689 27.6712 77.624 27.9877 77.855 28.3898C78.0945 28.7919 78.2143 29.2411 78.2143 29.7373ZM75.0573 31.1875C75.6134 31.1875 76.0284 31.0634 76.3021 30.8153C76.5759 30.5587 76.7128 30.1993 76.7128 29.7373C76.7128 28.762 76.161 28.2743 75.0573 28.2743H73.4403V31.1875H75.0573ZM82.6768 36.1155C82.0095 36.1155 81.4063 35.9658 80.8673 35.6663C80.3283 35.3583 79.9048 34.9306 79.5968 34.383C79.2888 33.8269 79.1348 33.1852 79.1348 32.458C79.1348 31.7393 79.2931 31.1019 79.6096 30.5458C79.9262 29.9897 80.3582 29.5619 80.9058 29.2625C81.4534 28.9631 82.0651 28.8133 82.741 28.8133C83.4169 28.8133 84.0286 28.9631 84.5761 29.2625C85.1237 29.5619 85.5557 29.9897 85.8723 30.5458C86.1889 31.1019 86.3471 31.7393 86.3471 32.458C86.3471 33.1767 86.1846 33.8141 85.8595 34.3702C85.5344 34.9263 85.0895 35.3583 84.5248 35.6663C83.9687 35.9658 83.3527 36.1155 82.6768 36.1155ZM82.6768 34.845C83.0532 34.845 83.404 34.7552 83.7291 34.5755C84.0628 34.3958 84.3323 34.1263 84.5376 33.767C84.743 33.4077 84.8456 32.9713 84.8456 32.458C84.8456 31.9447 84.7472 31.5126 84.5505 31.1618C84.3537 30.8025 84.0927 30.533 83.7676 30.3533C83.4425 30.1737 83.0917 30.0838 82.7153 30.0838C82.3389 30.0838 81.9881 30.1737 81.663 30.3533C81.3464 30.533 81.094 30.8025 80.9058 31.1618C80.7176 31.5126 80.6235 31.9447 80.6235 32.458C80.6235 33.2194 80.816 33.8098 81.201 34.229C81.5945 34.6397 82.0865 34.845 82.6768 34.845ZM88.5377 27.992C88.2725 27.992 88.0501 27.9022 87.8704 27.7225C87.6907 27.5428 87.6009 27.3204 87.6009 27.0552C87.6009 26.7899 87.6907 26.5675 87.8704 26.3878C88.0501 26.2082 88.2725 26.1183 88.5377 26.1183C88.7944 26.1183 89.0126 26.2082 89.1922 26.3878C89.3719 26.5675 89.4617 26.7899 89.4617 27.0552C89.4617 27.3204 89.3719 27.5428 89.1922 27.7225C89.0126 27.9022 88.7944 27.992 88.5377 27.992ZM89.2564 28.9288V36H87.7934V28.9288H89.2564ZM94.7449 28.8133C95.301 28.8133 95.7972 28.9288 96.2335 29.1598C96.6784 29.3908 97.0249 29.7331 97.273 30.1865C97.5211 30.6399 97.6452 31.1875 97.6452 31.8292V36H96.195V32.0473C96.195 31.4142 96.0367 30.9308 95.7202 30.5972C95.4036 30.2549 94.9716 30.0838 94.424 30.0838C93.8765 30.0838 93.4401 30.2549 93.115 30.5972C92.7985 30.9308 92.6402 31.4142 92.6402 32.0473V36H91.1772V28.9288H92.6402V29.7373C92.8797 29.4464 93.1835 29.2197 93.5514 29.0572C93.9278 28.8946 94.3256 28.8133 94.7449 28.8133ZM101.218 30.1223V34.0365C101.218 34.3017 101.278 34.4942 101.398 34.614C101.526 34.7252 101.74 34.7808 102.039 34.7808H102.938V36H101.783C101.124 36 100.619 35.846 100.268 35.538C99.9177 35.23 99.7423 34.7295 99.7423 34.0365V30.1223H98.9082V28.9288H99.7423V27.1707H101.218V28.9288H102.938V30.1223H101.218ZM106.853 36.1155C106.297 36.1155 105.796 36.0171 105.351 35.8203C104.915 35.615 104.569 35.3412 104.312 34.999C104.055 34.6482 103.918 34.2589 103.901 33.8312H105.416C105.441 34.1306 105.582 34.383 105.839 34.5883C106.104 34.7851 106.434 34.8835 106.827 34.8835C107.238 34.8835 107.554 34.8065 107.777 34.6525C108.008 34.4899 108.123 34.2846 108.123 34.0365C108.123 33.7713 107.995 33.5745 107.738 33.4462C107.49 33.3178 107.092 33.1767 106.545 33.0227C106.014 32.8772 105.582 32.7361 105.249 32.5992C104.915 32.4623 104.624 32.2527 104.376 31.9703C104.137 31.688 104.017 31.3158 104.017 30.8538C104.017 30.4774 104.128 30.1352 104.35 29.8272C104.573 29.5106 104.889 29.2625 105.3 29.0828C105.719 28.9032 106.198 28.8133 106.737 28.8133C107.542 28.8133 108.188 29.0187 108.675 29.4293C109.171 29.8314 109.437 30.3833 109.471 31.0848H108.008C107.982 30.7683 107.854 30.5159 107.623 30.3277C107.392 30.1394 107.08 30.0453 106.686 30.0453C106.301 30.0453 106.006 30.1181 105.801 30.2635C105.595 30.4089 105.493 30.6014 105.493 30.841C105.493 31.0292 105.561 31.1875 105.698 31.3158C105.835 31.4442 106.002 31.5468 106.198 31.6238C106.395 31.6923 106.686 31.7821 107.071 31.8933C107.584 32.0302 108.004 32.1714 108.329 32.3168C108.662 32.4537 108.949 32.6591 109.189 32.9328C109.428 33.2066 109.552 33.5702 109.561 34.0237C109.561 34.4258 109.45 34.7851 109.227 35.1017C109.005 35.4182 108.688 35.6663 108.277 35.846C107.875 36.0257 107.4 36.1155 106.853 36.1155ZM115.938 28.2615V30.8795H119.018V32.073H115.938V34.8065H119.403V36H114.475V27.068H119.403V28.2615H115.938ZM120.718 32.4323C120.718 31.7222 120.863 31.0934 121.154 30.5458C121.453 29.9983 121.855 29.5748 122.36 29.2753C122.874 28.9673 123.438 28.8133 124.054 28.8133C124.61 28.8133 125.094 28.9246 125.504 29.147C125.924 29.3609 126.257 29.6304 126.505 29.9555V28.9288H127.981V36H126.505V34.9477C126.257 35.2813 125.919 35.5594 125.492 35.7818C125.064 36.0043 124.576 36.1155 124.029 36.1155C123.421 36.1155 122.865 35.9615 122.36 35.6535C121.855 35.3369 121.453 34.9006 121.154 34.3445C120.863 33.7798 120.718 33.1424 120.718 32.4323ZM126.505 32.458C126.505 31.9703 126.403 31.5468 126.197 31.1875C126.001 30.8282 125.74 30.5544 125.415 30.3662C125.089 30.1779 124.739 30.0838 124.362 30.0838C123.986 30.0838 123.635 30.1779 123.31 30.3662C122.985 30.5458 122.72 30.8153 122.514 31.1747C122.317 31.5254 122.219 31.9447 122.219 32.4323C122.219 32.92 122.317 33.3478 122.514 33.7157C122.72 34.0836 122.985 34.3659 123.31 34.5627C123.644 34.7509 123.994 34.845 124.362 34.845C124.739 34.845 125.089 34.7509 125.415 34.5627C125.74 34.3744 126.001 34.1007 126.197 33.7413C126.403 33.3734 126.505 32.9457 126.505 32.458ZM131.366 29.9555C131.58 29.5962 131.862 29.3181 132.213 29.1213C132.572 28.916 132.996 28.8133 133.483 28.8133V30.3277H133.111C132.538 30.3277 132.102 30.4731 131.802 30.764C131.511 31.0549 131.366 31.5597 131.366 32.2783V36H129.903V28.9288H131.366V29.9555ZM138.396 28.8133C138.952 28.8133 139.448 28.9288 139.884 29.1598C140.329 29.3908 140.676 29.7331 140.924 30.1865C141.172 30.6399 141.296 31.1875 141.296 31.8292V36H139.846V32.0473C139.846 31.4142 139.688 30.9308 139.371 30.5972C139.055 30.2549 138.622 30.0838 138.075 30.0838C137.527 30.0838 137.091 30.2549 136.766 30.5972C136.449 30.9308 136.291 31.4142 136.291 32.0473V36H134.828V28.9288H136.291V29.7373C136.531 29.4464 136.834 29.2197 137.202 29.0572C137.579 28.8946 137.977 28.8133 138.396 28.8133ZM149.643 32.2912C149.643 32.5564 149.626 32.7959 149.592 33.0098H144.189C144.232 33.5745 144.441 34.0279 144.818 34.3702C145.194 34.7124 145.656 34.8835 146.204 34.8835C146.991 34.8835 147.547 34.5541 147.872 33.8953H149.451C149.237 34.5456 148.847 35.0803 148.283 35.4995C147.727 35.9102 147.034 36.1155 146.204 36.1155C145.528 36.1155 144.92 35.9658 144.381 35.6663C143.851 35.3583 143.432 34.9306 143.124 34.383C142.824 33.8269 142.675 33.1852 142.675 32.458C142.675 31.7308 142.82 31.0934 143.111 30.5458C143.41 29.9897 143.825 29.5619 144.356 29.2625C144.895 28.9631 145.511 28.8133 146.204 28.8133C146.871 28.8133 147.466 28.9588 147.988 29.2497C148.509 29.5406 148.916 29.9512 149.207 30.4817C149.498 31.0036 149.643 31.6067 149.643 32.2912ZM148.116 31.8292C148.107 31.2902 147.915 30.8581 147.538 30.533C147.162 30.2079 146.696 30.0453 146.14 30.0453C145.635 30.0453 145.203 30.2079 144.843 30.533C144.484 30.8496 144.27 31.2816 144.202 31.8292H148.116ZM150.595 32.4323C150.595 31.7222 150.741 31.0934 151.031 30.5458C151.331 29.9983 151.733 29.5748 152.238 29.2753C152.751 28.9673 153.32 28.8133 153.945 28.8133C154.407 28.8133 154.86 28.916 155.305 29.1213C155.758 29.3181 156.118 29.5833 156.383 29.917V26.5033H157.859V36H156.383V34.9348C156.143 35.2771 155.81 35.5594 155.382 35.7818C154.963 36.0043 154.479 36.1155 153.932 36.1155C153.316 36.1155 152.751 35.9615 152.238 35.6535C151.733 35.3369 151.331 34.9006 151.031 34.3445C150.741 33.7798 150.595 33.1424 150.595 32.4323ZM156.383 32.458C156.383 31.9703 156.28 31.5468 156.075 31.1875C155.878 30.8282 155.617 30.5544 155.292 30.3662C154.967 30.1779 154.616 30.0838 154.24 30.0838C153.863 30.0838 153.513 30.1779 153.187 30.3662C152.862 30.5458 152.597 30.8153 152.392 31.1747C152.195 31.5254 152.097 31.9447 152.097 32.4323C152.097 32.92 152.195 33.3478 152.392 33.7157C152.597 34.0836 152.862 34.3659 153.187 34.5627C153.521 34.7509 153.872 34.845 154.24 34.845C154.616 34.845 154.967 34.7509 155.292 34.5627C155.617 34.3744 155.878 34.1007 156.075 33.7413C156.28 33.3734 156.383 32.9457 156.383 32.458Z" fill="#626C7A"/>
<path d="M23.21 60.5219C23.2833 59.0553 23.7967 57.9259 24.75 57.1339C25.718 56.3273 26.9867 55.9239 28.556 55.9239C29.6267 55.9239 30.5433 56.1146 31.306 56.4959C32.0687 56.8626 32.6407 57.3686 33.022 58.0139C33.418 58.6446 33.616 59.3633 33.616 60.1699C33.616 61.0939 33.374 61.8786 32.89 62.5239C32.4207 63.1546 31.856 63.5799 31.196 63.7999V63.8879C32.0467 64.1519 32.7067 64.6213 33.176 65.2959C33.66 65.9706 33.902 66.8359 33.902 67.8919C33.902 68.7719 33.6967 69.5566 33.286 70.2459C32.89 70.9353 32.296 71.4779 31.504 71.8739C30.7267 72.2553 29.788 72.4459 28.688 72.4459C27.0307 72.4459 25.6813 72.0279 24.64 71.1919C23.5987 70.3559 23.0487 69.1239 22.99 67.4959H25.982C26.0113 68.2146 26.2533 68.7939 26.708 69.2339C27.1773 69.6593 27.8153 69.8719 28.622 69.8719C29.37 69.8719 29.942 69.6666 30.338 69.2559C30.7487 68.8306 30.954 68.2879 30.954 67.6279C30.954 66.7479 30.6753 66.1173 30.118 65.7359C29.5607 65.3546 28.6953 65.1639 27.522 65.1639H26.884V62.6339H27.522C29.6047 62.6339 30.646 61.9373 30.646 60.5439C30.646 59.9133 30.4553 59.4219 30.074 59.0699C29.7073 58.7179 29.172 58.5419 28.468 58.5419C27.7787 58.5419 27.2433 58.7326 26.862 59.1139C26.4953 59.4806 26.2827 59.9499 26.224 60.5219H23.21ZM47.1159 58.9599H39.9879V62.7219C40.2959 62.3406 40.7359 62.0326 41.3079 61.7979C41.8799 61.5486 42.4886 61.4239 43.1339 61.4239C44.3073 61.4239 45.2679 61.6806 46.0159 62.1939C46.7639 62.7073 47.3066 63.3673 47.6439 64.1739C47.9813 64.9659 48.1499 65.8166 48.1499 66.7259C48.1499 68.4126 47.6659 69.7693 46.6979 70.7959C45.7446 71.8226 44.3806 72.3359 42.6059 72.3359C40.9339 72.3359 39.5993 71.9179 38.6019 71.0819C37.6046 70.2459 37.0399 69.1533 36.9079 67.8039H39.8999C40.0319 68.3906 40.3253 68.8599 40.7799 69.2119C41.2493 69.5639 41.8433 69.7399 42.5619 69.7399C43.4273 69.7399 44.0799 69.4686 44.5199 68.9259C44.9599 68.3833 45.1799 67.6646 45.1799 66.7699C45.1799 65.8606 44.9526 65.1713 44.4979 64.7019C44.0579 64.2179 43.4053 63.9759 42.5399 63.9759C41.9239 63.9759 41.4106 64.1299 40.9999 64.4379C40.5893 64.7459 40.2959 65.1566 40.1199 65.6699H37.1719V56.2539H47.1159V58.9599ZM51.4621 68.8599C52.8701 67.6866 53.9921 66.7113 54.8281 65.9339C55.6641 65.1419 56.3608 64.3206 56.9181 63.4699C57.4755 62.6193 57.7541 61.7833 57.7541 60.9619C57.7541 60.2139 57.5781 59.6273 57.2261 59.2019C56.8741 58.7766 56.3315 58.5639 55.5981 58.5639C54.8648 58.5639 54.3001 58.8133 53.9041 59.3119C53.5081 59.7959 53.3028 60.4633 53.2881 61.3139H50.2961C50.3548 59.5539 50.8755 58.2193 51.8581 57.3099C52.8555 56.4006 54.1168 55.9459 55.6421 55.9459C57.3141 55.9459 58.5975 56.3933 59.4921 57.2879C60.3868 58.1679 60.8341 59.3339 60.8341 60.7859C60.8341 61.9299 60.5261 63.0226 59.9101 64.0639C59.2941 65.1053 58.5901 66.0146 57.7981 66.7919C57.0061 67.5546 55.9721 68.4786 54.6961 69.5639H61.1861V72.1159H50.3181V69.8279L51.4621 68.8599Z" fill="#1A1A1A"/>
<path d="M38.8056 94.0078L32.7948 100.019C32.4923 100.321 32.3411 100.472 32.1667 100.529C32.0132 100.579 31.848 100.579 31.6946 100.529C31.5201 100.472 31.3689 100.321 31.0664 100.019L28.9754 97.9276C28.6729 97.6251 28.5216 97.4738 28.3472 97.4172C28.1938 97.3673 28.0285 97.3673 27.8751 97.4172C27.7007 97.4738 27.5494 97.6251 27.2469 97.9276L23.5278 101.647M38.8056 94.0078H33.4584M38.8056 94.0078V99.355" stroke="#17B26A" stroke-width="1.375" stroke-linecap="round" stroke-linejoin="round"/>
<path d="M44.7457 94.2881V93.3751H46.8137V101.328H45.8017V94.2881H44.7457ZM48.7532 97.2691C48.7532 96.0078 48.9585 95.0251 49.3692 94.3211C49.7798 93.6098 50.4985 93.2541 51.5252 93.2541C52.5445 93.2541 53.2595 93.6098 53.6702 94.3211C54.0808 95.0251 54.2862 96.0078 54.2862 97.2691C54.2862 98.5525 54.0808 99.5498 53.6702 100.261C53.2595 100.972 52.5445 101.328 51.5252 101.328C50.4985 101.328 49.7798 100.972 49.3692 100.261C48.9585 99.5498 48.7532 98.5525 48.7532 97.2691ZM53.2962 97.2691C53.2962 96.6311 53.2522 96.0921 53.1642 95.6521C53.0835 95.2048 52.9112 94.8455 52.6472 94.5741C52.3905 94.3028 52.0165 94.1671 51.5252 94.1671C51.0265 94.1671 50.6452 94.3028 50.3812 94.5741C50.1245 94.8455 49.9522 95.2048 49.8642 95.6521C49.7835 96.0921 49.7432 96.6311 49.7432 97.2691C49.7432 97.9291 49.7835 98.4828 49.8642 98.9301C49.9522 99.3775 50.1245 99.7368 50.3812 100.008C50.6452 100.279 51.0265 100.415 51.5252 100.415C52.0165 100.415 52.3905 100.279 52.6472 100.008C52.9112 99.7368 53.0835 99.3775 53.1642 98.9301C53.2522 98.4828 53.2962 97.9291 53.2962 97.2691ZM55.8804 97.2691C55.8804 96.0078 56.0857 95.0251 56.4964 94.3211C56.907 93.6098 57.6257 93.2541 58.6524 93.2541C59.6717 93.2541 60.3867 93.6098 60.7974 94.3211C61.208 95.0251 61.4134 96.0078 61.4134 97.2691C61.4134 98.5525 61.208 99.5498 60.7974 100.261C60.3867 100.972 59.6717 101.328 58.6524 101.328C57.6257 101.328 56.907 100.972 56.4964 100.261C56.0857 99.5498 55.8804 98.5525 55.8804 97.2691ZM60.4234 97.2691C60.4234 96.6311 60.3794 96.0921 60.2914 95.6521C60.2107 95.2048 60.0384 94.8455 59.7744 94.5741C59.5177 94.3028 59.1437 94.1671 58.6524 94.1671C58.1537 94.1671 57.7724 94.3028 57.5084 94.5741C57.2517 94.8455 57.0794 95.2048 56.9914 95.6521C56.9107 96.0921 56.8704 96.6311 56.8704 97.2691C56.8704 97.9291 56.9107 98.4828 56.9914 98.9301C57.0794 99.3775 57.2517 99.7368 57.5084 100.008C57.7724 100.279 58.1537 100.415 58.6524 100.415C59.1437 100.415 59.5177 100.279 59.7744 100.008C60.0384 99.7368 60.2107 99.3775 60.2914 98.9301C60.3794 98.4828 60.4234 97.9291 60.4234 97.2691ZM62.7876 95.1681C62.7876 94.6695 62.9379 94.2735 63.2386 93.9801C63.5393 93.6795 63.9243 93.5291 64.3936 93.5291C64.8629 93.5291 65.2479 93.6795 65.5486 93.9801C65.8493 94.2735 65.9996 94.6695 65.9996 95.1681C65.9996 95.6741 65.8493 96.0775 65.5486 96.3781C65.2479 96.6715 64.8629 96.8181 64.3936 96.8181C63.9243 96.8181 63.5393 96.6715 63.2386 96.3781C62.9379 96.0775 62.7876 95.6741 62.7876 95.1681ZM69.2116 93.6501L64.7566 101.328H63.7666L68.2216 93.6501H69.2116ZM64.3936 94.1451C64.1443 94.1451 63.9463 94.2331 63.7996 94.4091C63.6603 94.5778 63.5906 94.8308 63.5906 95.1681C63.5906 95.5055 63.6603 95.7621 63.7996 95.9381C63.9463 96.1141 64.1443 96.2021 64.3936 96.2021C64.6429 96.2021 64.8409 96.1141 64.9876 95.9381C65.1343 95.7548 65.2076 95.4981 65.2076 95.1681C65.2076 94.8308 65.1343 94.5778 64.9876 94.4091C64.8409 94.2331 64.6429 94.1451 64.3936 94.1451ZM67.0006 99.8101C67.0006 99.3041 67.1509 98.9045 67.4516 98.6111C67.7523 98.3105 68.1373 98.1601 68.6066 98.1601C69.0759 98.1601 69.4573 98.3105 69.7506 98.6111C70.0513 98.9045 70.2016 99.3041 70.2016 99.8101C70.2016 100.309 70.0513 100.708 69.7506 101.009C69.4573 101.31 69.0759 101.46 68.6066 101.46C68.1373 101.46 67.7523 101.313 67.4516 101.02C67.1509 100.719 67.0006 100.316 67.0006 99.8101ZM68.5956 98.7871C68.3463 98.7871 68.1483 98.8751 68.0016 99.0511C67.8549 99.2198 67.7816 99.4728 67.7816 99.8101C67.7816 100.14 67.8549 100.393 68.0016 100.569C68.1483 100.738 68.3463 100.822 68.5956 100.822C68.8449 100.822 69.0429 100.738 69.1896 100.569C69.3363 100.393 69.4096 100.14 69.4096 99.8101C69.4096 99.4728 69.3363 99.2198 69.1896 99.0511C69.0429 98.8751 68.8449 98.7871 68.5956 98.7871Z" fill="#02B14F"/>
<path d="M81.6333 96.1251H80.3683V101.328H79.3673V96.1251H78.5863V95.3001H79.3673V94.8711C79.3673 94.1965 79.5396 93.7051 79.8843 93.3971C80.2363 93.0818 80.7973 92.9241 81.5673 92.9241V93.7601C81.1273 93.7601 80.8156 93.8481 80.6323 94.0241C80.4563 94.1928 80.3683 94.4751 80.3683 94.8711V95.3001H81.6333V96.1251ZM83.8014 96.2791C83.9774 95.9345 84.2267 95.6668 84.5494 95.4761C84.8794 95.2855 85.279 95.1901 85.7484 95.1901V96.2241H85.4844C84.3624 96.2241 83.8014 96.8328 83.8014 98.0501V101.328H82.8004V95.3001H83.8014V96.2791ZM89.5329 101.427C88.9682 101.427 88.4549 101.299 87.9929 101.042C87.5382 100.785 87.1789 100.422 86.9149 99.9531C86.6582 99.4765 86.5299 98.9265 86.5299 98.3031C86.5299 97.6871 86.6619 97.1445 86.9259 96.6751C87.1972 96.1985 87.5639 95.8355 88.0259 95.5861C88.4879 95.3295 89.0049 95.2011 89.5769 95.2011C90.1489 95.2011 90.6659 95.3295 91.1279 95.5861C91.5899 95.8355 91.9529 96.1948 92.2169 96.6641C92.4882 97.1335 92.6239 97.6798 92.6239 98.3031C92.6239 98.9265 92.4846 99.4765 92.2059 99.9531C91.9346 100.422 91.5642 100.785 91.0949 101.042C90.6256 101.299 90.1049 101.427 89.5329 101.427ZM89.5329 100.547C89.8922 100.547 90.2296 100.463 90.5449 100.294C90.8602 100.125 91.1132 99.8725 91.3039 99.5351C91.5019 99.1978 91.6009 98.7871 91.6009 98.3031C91.6009 97.8191 91.5056 97.4085 91.3149 97.0711C91.1242 96.7338 90.8749 96.4845 90.5669 96.3231C90.2589 96.1545 89.9252 96.0701 89.5659 96.0701C89.1992 96.0701 88.8619 96.1545 88.5539 96.3231C88.2532 96.4845 88.0112 96.7338 87.8279 97.0711C87.6446 97.4085 87.5529 97.8191 87.5529 98.3031C87.5529 98.7945 87.6409 99.2088 87.8169 99.5461C88.0002 99.8835 88.2422 100.136 88.5429 100.305C88.8436 100.466 89.1736 100.547 89.5329 100.547ZM101.189 95.1901C101.658 95.1901 102.076 95.2891 102.443 95.4871C102.81 95.6778 103.099 95.9675 103.312 96.3561C103.525 96.7448 103.631 97.2178 103.631 97.7751V101.328H102.641V97.9181C102.641 97.3168 102.491 96.8585 102.19 96.5431C101.897 96.2205 101.497 96.0591 100.991 96.0591C100.47 96.0591 100.056 96.2278 99.748 96.5651C99.44 96.8951 99.286 97.3755 99.286 98.0061V101.328H98.296V97.9181C98.296 97.3168 98.1457 96.8585 97.845 96.5431C97.5517 96.2205 97.152 96.0591 96.646 96.0591C96.1254 96.0591 95.711 96.2278 95.403 96.5651C95.095 96.8951 94.941 97.3755 94.941 98.0061V101.328H93.94V95.3001H94.941V96.1691C95.139 95.8538 95.403 95.6118 95.733 95.4431C96.0704 95.2745 96.4407 95.1901 96.844 95.1901C97.35 95.1901 97.7974 95.3038 98.186 95.5311C98.5747 95.7585 98.8644 96.0921 99.055 96.5321C99.2237 96.1068 99.5024 95.7768 99.891 95.5421C100.28 95.3075 100.712 95.1901 101.189 95.1901ZM109.207 93.1881V101.328H108.206V93.1881H109.207ZM110.539 98.2921C110.539 97.6761 110.663 97.1371 110.913 96.6751C111.162 96.2058 111.503 95.8428 111.936 95.5861C112.376 95.3295 112.863 95.2011 113.399 95.2011C113.927 95.2011 114.385 95.3148 114.774 95.5421C115.162 95.7695 115.452 96.0555 115.643 96.4001V95.3001H116.655V101.328H115.643V100.206C115.445 100.558 115.148 100.851 114.752 101.086C114.363 101.313 113.908 101.427 113.388 101.427C112.852 101.427 112.368 101.295 111.936 101.031C111.503 100.767 111.162 100.397 110.913 99.9201C110.663 99.4435 110.539 98.9008 110.539 98.2921ZM115.643 98.3031C115.643 97.8485 115.551 97.4525 115.368 97.1151C115.184 96.7778 114.935 96.5211 114.62 96.3451C114.312 96.1618 113.971 96.0701 113.597 96.0701C113.223 96.0701 112.882 96.1581 112.574 96.3341C112.266 96.5101 112.02 96.7668 111.837 97.1041C111.653 97.4415 111.562 97.8375 111.562 98.2921C111.562 98.7541 111.653 99.1575 111.837 99.5021C112.02 99.8395 112.266 100.1 112.574 100.283C112.882 100.459 113.223 100.547 113.597 100.547C113.971 100.547 114.312 100.459 114.62 100.283C114.935 100.1 115.184 99.8395 115.368 99.5021C115.551 99.1575 115.643 98.7578 115.643 98.3031ZM120.48 101.427C120.018 101.427 119.604 101.35 119.237 101.196C118.871 101.035 118.581 100.815 118.368 100.536C118.156 100.25 118.038 99.9238 118.016 99.5571H119.05C119.08 99.8578 119.219 100.103 119.468 100.294C119.725 100.485 120.059 100.58 120.469 100.58C120.851 100.58 121.151 100.496 121.371 100.327C121.591 100.158 121.701 99.9458 121.701 99.6891C121.701 99.4251 121.584 99.2308 121.349 99.1061C121.115 98.9741 120.752 98.8458 120.26 98.7211C119.813 98.6038 119.446 98.4865 119.16 98.3691C118.882 98.2445 118.64 98.0648 118.434 97.8301C118.236 97.5881 118.137 97.2728 118.137 96.8841C118.137 96.5761 118.229 96.2938 118.412 96.0371C118.596 95.7805 118.856 95.5788 119.193 95.4321C119.531 95.2781 119.916 95.2011 120.348 95.2011C121.016 95.2011 121.555 95.3698 121.965 95.7071C122.376 96.0445 122.596 96.5065 122.625 97.0931H121.624C121.602 96.7778 121.474 96.5248 121.239 96.3341C121.012 96.1435 120.704 96.0481 120.315 96.0481C119.956 96.0481 119.67 96.1251 119.457 96.2791C119.245 96.4331 119.138 96.6348 119.138 96.8841C119.138 97.0821 119.201 97.2471 119.325 97.3791C119.457 97.5038 119.619 97.6065 119.809 97.6871C120.007 97.7605 120.279 97.8448 120.623 97.9401C121.056 98.0575 121.408 98.1748 121.679 98.2921C121.951 98.4021 122.182 98.5708 122.372 98.7981C122.57 99.0255 122.673 99.3225 122.68 99.6891C122.68 100.019 122.589 100.316 122.405 100.58C122.222 100.844 121.962 101.053 121.624 101.207C121.294 101.354 120.913 101.427 120.48 101.427ZM125.314 96.1251V99.6781C125.314 99.9715 125.377 100.18 125.501 100.305C125.626 100.422 125.842 100.481 126.15 100.481H126.887V101.328H125.985C125.428 101.328 125.01 101.2 124.731 100.943C124.453 100.686 124.313 100.265 124.313 99.6781V96.1251H123.532V95.3001H124.313V93.7821H125.314V95.3001H126.887V96.1251H125.314ZM138.282 95.1901C138.751 95.1901 139.169 95.2891 139.536 95.4871C139.902 95.6778 140.192 95.9675 140.405 96.3561C140.617 96.7448 140.724 97.2178 140.724 97.7751V101.328H139.734V97.9181C139.734 97.3168 139.583 96.8585 139.283 96.5431C138.989 96.2205 138.59 96.0591 138.084 96.0591C137.563 96.0591 137.149 96.2278 136.841 96.5651C136.533 96.8951 136.379 97.3755 136.379 98.0061V101.328H135.389V97.9181C135.389 97.3168 135.238 96.8585 134.938 96.5431C134.644 96.2205 134.245 96.0591 133.739 96.0591C133.218 96.0591 132.804 96.2278 132.496 96.5651C132.188 96.8951 132.034 97.3755 132.034 98.0061V101.328H131.033V95.3001H132.034V96.1691C132.232 95.8538 132.496 95.6118 132.826 95.4431C133.163 95.2745 133.533 95.1901 133.937 95.1901C134.443 95.1901 134.89 95.3038 135.279 95.5311C135.667 95.7585 135.957 96.0921 136.148 96.5321C136.316 96.1068 136.595 95.7768 136.984 95.5421C137.372 95.3075 137.805 95.1901 138.282 95.1901ZM144.995 101.427C144.43 101.427 143.917 101.299 143.455 101.042C143 100.785 142.641 100.422 142.377 99.9531C142.12 99.4765 141.992 98.9265 141.992 98.3031C141.992 97.6871 142.124 97.1445 142.388 96.6751C142.659 96.1985 143.026 95.8355 143.488 95.5861C143.95 95.3295 144.467 95.2011 145.039 95.2011C145.611 95.2011 146.128 95.3295 146.59 95.5861C147.052 95.8355 147.415 96.1948 147.679 96.6641C147.95 97.1335 148.086 97.6798 148.086 98.3031C148.086 98.9265 147.946 99.4765 147.668 99.9531C147.396 100.422 147.026 100.785 146.557 101.042C146.087 101.299 145.567 101.427 144.995 101.427ZM144.995 100.547C145.354 100.547 145.691 100.463 146.007 100.294C146.322 100.125 146.575 99.8725 146.766 99.5351C146.964 99.1978 147.063 98.7871 147.063 98.3031C147.063 97.8191 146.967 97.4085 146.777 97.0711C146.586 96.7338 146.337 96.4845 146.029 96.3231C145.721 96.1545 145.387 96.0701 145.028 96.0701C144.661 96.0701 144.324 96.1545 144.016 96.3231C143.715 96.4845 143.473 96.7338 143.29 97.0711C143.106 97.4085 143.015 97.8191 143.015 98.3031C143.015 98.7945 143.103 99.2088 143.279 99.5461C143.462 99.8835 143.704 100.136 144.005 100.305C144.305 100.466 144.635 100.547 144.995 100.547ZM152.339 95.1901C153.072 95.1901 153.666 95.4138 154.121 95.8611C154.576 96.3011 154.803 96.9391 154.803 97.7751V101.328H153.813V97.9181C153.813 97.3168 153.663 96.8585 153.362 96.5431C153.061 96.2205 152.651 96.0591 152.13 96.0591C151.602 96.0591 151.18 96.2241 150.865 96.5541C150.557 96.8841 150.403 97.3645 150.403 97.9951V101.328H149.402V95.3001H150.403V96.1581C150.601 95.8501 150.869 95.6118 151.206 95.4431C151.551 95.2745 151.928 95.1901 152.339 95.1901ZM157.659 96.1251V99.6781C157.659 99.9715 157.721 100.18 157.846 100.305C157.971 100.422 158.187 100.481 158.495 100.481H159.232V101.328H158.33C157.773 101.328 157.355 101.2 157.076 100.943C156.797 100.686 156.658 100.265 156.658 99.6781V96.1251H155.877V95.3001H156.658V93.7821H157.659V95.3001H159.232V96.1251H157.659ZM163.437 95.1901C163.892 95.1901 164.302 95.2891 164.669 95.4871C165.036 95.6778 165.322 95.9675 165.527 96.3561C165.74 96.7448 165.846 97.2178 165.846 97.7751V101.328H164.856V97.9181C164.856 97.3168 164.706 96.8585 164.405 96.5431C164.104 96.2205 163.694 96.0591 163.173 96.0591C162.645 96.0591 162.223 96.2241 161.908 96.5541C161.6 96.8841 161.446 97.3645 161.446 97.9951V101.328H160.445V93.1881H161.446V96.1581C161.644 95.8501 161.915 95.6118 162.26 95.4431C162.612 95.2745 163.004 95.1901 163.437 95.1901Z" fill="#17B26A"/>
</svg>
