<svg width="306" height="130" viewBox="0 0 306 130" fill="none" xmlns="http://www.w3.org/2000/svg">
<rect width="306" height="130" rx="10" fill="white"/>
<path d="M41.352 70.5L45.448 59.3H47.896L51.976 70.5H49.688L46.664 61.764L43.624 70.5H41.352ZM43.16 67.956L43.736 66.276H49.432L49.992 67.956H43.16ZM53.7677 70.5V62.436H55.9277V70.5H53.7677ZM54.8557 61.332C54.4717 61.332 54.1517 61.22 53.8957 60.996C53.6504 60.7613 53.5277 60.468 53.5277 60.116C53.5277 59.764 53.6504 59.476 53.8957 59.252C54.1517 59.0173 54.4717 58.9 54.8557 58.9C55.2504 58.9 55.5704 59.0173 55.8157 59.252C56.0717 59.476 56.1997 59.764 56.1997 60.116C56.1997 60.468 56.0717 60.7613 55.8157 60.996C55.5704 61.22 55.2504 61.332 54.8557 61.332ZM58.4304 70.5V62.436H60.3504L60.5584 63.924C60.7504 63.572 60.9904 63.2733 61.2784 63.028C61.577 62.7827 61.913 62.5907 62.2864 62.452C62.6704 62.3133 63.0917 62.244 63.5504 62.244V64.532H62.8144C62.4944 64.532 62.1957 64.5693 61.9184 64.644C61.6517 64.7187 61.417 64.8413 61.2144 65.012C61.0117 65.172 60.857 65.396 60.7504 65.684C60.6437 65.972 60.5904 66.3347 60.5904 66.772V70.5H58.4304ZM68.9292 70.5C68.3639 70.5 67.8679 70.4147 67.4412 70.244C67.0252 70.0627 66.6999 69.7693 66.4652 69.364C66.2306 68.948 66.1132 68.3827 66.1132 67.668V64.244H64.7372V62.436H66.1132L66.3532 60.244H68.2732V62.436H70.4012V64.244H68.2732V67.7C68.2732 68.0627 68.3532 68.3133 68.5132 68.452C68.6732 68.5907 68.9452 68.66 69.3292 68.66H70.3852V70.5H68.9292ZM72.5871 70.5V62.436H74.7471V70.5H72.5871ZM73.6751 61.332C73.2911 61.332 72.9711 61.22 72.7151 60.996C72.4698 60.7613 72.3471 60.468 72.3471 60.116C72.3471 59.764 72.4698 59.476 72.7151 59.252C72.9711 59.0173 73.2911 58.9 73.6751 58.9C74.0698 58.9 74.3898 59.0173 74.6351 59.252C74.8911 59.476 75.0191 59.764 75.0191 60.116C75.0191 60.468 74.8911 60.7613 74.6351 60.996C74.3898 61.22 74.0698 61.332 73.6751 61.332ZM77.2497 70.5V62.436H79.1537L79.3297 63.508C79.5857 63.124 79.9217 62.82 80.3377 62.596C80.7644 62.3613 81.2497 62.244 81.7937 62.244C82.1991 62.244 82.5617 62.2973 82.8817 62.404C83.2017 62.5107 83.4844 62.6653 83.7297 62.868C83.9857 63.0707 84.1937 63.3267 84.3537 63.636C84.6524 63.1987 85.0417 62.8573 85.5217 62.612C86.0017 62.3667 86.5244 62.244 87.0897 62.244C87.7937 62.244 88.3804 62.388 88.8497 62.676C89.3191 62.9533 89.6711 63.3587 89.9057 63.892C90.1511 64.4253 90.2737 65.0813 90.2737 65.86V70.5H88.1297V66.052C88.1297 65.412 88.0017 64.9213 87.7457 64.58C87.5004 64.2387 87.1164 64.068 86.5937 64.068C86.2524 64.068 85.9484 64.1533 85.6817 64.324C85.4151 64.4947 85.2071 64.74 85.0577 65.06C84.9191 65.38 84.8497 65.764 84.8497 66.212V70.5H82.6897V66.052C82.6897 65.412 82.5617 64.9213 82.3057 64.58C82.0497 64.2387 81.6551 64.068 81.1217 64.068C80.7911 64.068 80.4924 64.1533 80.2257 64.324C79.9697 64.4947 79.7671 64.74 79.6177 65.06C79.4791 65.38 79.4097 65.764 79.4097 66.212V70.5H77.2497ZM96.5042 70.692C95.6936 70.692 94.9736 70.5213 94.3442 70.18C93.7256 69.828 93.2402 69.3427 92.8882 68.724C92.5469 68.0947 92.3762 67.3693 92.3762 66.548C92.3762 65.7053 92.5469 64.964 92.8882 64.324C93.2402 63.6733 93.7256 63.1667 94.3442 62.804C94.9629 62.4307 95.6829 62.244 96.5042 62.244C97.3042 62.244 98.0029 62.42 98.6002 62.772C99.1976 63.124 99.6616 63.5987 99.9922 64.196C100.323 64.7933 100.488 65.4707 100.488 66.228C100.488 66.3347 100.488 66.4573 100.488 66.596C100.488 66.724 100.478 66.8573 100.456 66.996H93.9122V65.684H98.3122C98.2802 65.1613 98.0936 64.7507 97.7522 64.452C97.4216 64.1533 97.0056 64.004 96.5042 64.004C96.1416 64.004 95.8056 64.0893 95.4962 64.26C95.1869 64.42 94.9416 64.6707 94.7602 65.012C94.5896 65.3533 94.5042 65.7853 94.5042 66.308V66.772C94.5042 67.2093 94.5842 67.5933 94.7442 67.924C94.9149 68.244 95.1496 68.4947 95.4482 68.676C95.7469 68.8467 96.0936 68.932 96.4882 68.932C96.8829 68.932 97.2082 68.8467 97.4642 68.676C97.7309 68.5053 97.9282 68.2867 98.0562 68.02H100.264C100.115 68.5213 99.8642 68.9747 99.5122 69.38C99.1602 69.7853 98.7282 70.1053 98.2162 70.34C97.7042 70.5747 97.1336 70.692 96.5042 70.692ZM115.143 70.5L109.063 64.452C108.572 63.9613 108.226 63.5187 108.023 63.124C107.82 62.7187 107.719 62.292 107.719 61.844C107.719 61.332 107.847 60.868 108.103 60.452C108.359 60.036 108.732 59.7107 109.223 59.476C109.724 59.2307 110.322 59.108 111.015 59.108C111.708 59.108 112.29 59.236 112.759 59.492C113.239 59.748 113.602 60.084 113.847 60.5C114.103 60.916 114.226 61.3853 114.215 61.908H112.151C112.151 61.524 112.039 61.236 111.815 61.044C111.591 60.852 111.314 60.756 110.983 60.756C110.62 60.756 110.327 60.8573 110.103 61.06C109.89 61.252 109.783 61.508 109.783 61.828C109.783 62.084 109.863 62.3507 110.023 62.628C110.183 62.9053 110.428 63.2147 110.759 63.556L117.719 70.5H115.143ZM110.279 70.676C109.458 70.676 108.743 70.5373 108.135 70.26C107.538 69.972 107.074 69.572 106.743 69.06C106.412 68.548 106.247 67.9453 106.247 67.252C106.247 66.7187 106.359 66.2227 106.583 65.764C106.807 65.2947 107.143 64.884 107.591 64.532C108.039 64.1693 108.594 63.8813 109.255 63.668L110.071 63.412L111.015 64.756L110.279 64.996C109.628 65.2093 109.143 65.4973 108.823 65.86C108.514 66.2227 108.359 66.644 108.359 67.124C108.359 67.4547 108.439 67.7587 108.599 68.036C108.759 68.3027 108.994 68.516 109.303 68.676C109.612 68.836 109.975 68.916 110.391 68.916C110.967 68.916 111.484 68.788 111.943 68.532C112.402 68.276 112.844 67.8653 113.271 67.3C113.463 67.044 113.655 66.756 113.847 66.436C114.039 66.116 114.231 65.7587 114.423 65.364L114.759 64.676H116.951L116.407 65.78C116.14 66.3347 115.868 66.8413 115.591 67.3C115.314 67.7587 115.026 68.164 114.727 68.516C114.119 69.2733 113.452 69.8227 112.727 70.164C112.012 70.5053 111.196 70.676 110.279 70.676ZM123.616 70.5V59.3H127.36C128.662 59.3 129.734 59.5347 130.576 60.004C131.43 60.4627 132.059 61.1133 132.464 61.956C132.88 62.788 133.088 63.7693 133.088 64.9C133.088 66.0307 132.88 67.0173 132.464 67.86C132.059 68.692 131.435 69.3427 130.592 69.812C129.75 70.2707 128.672 70.5 127.36 70.5H123.616ZM125.776 68.644H127.248C128.166 68.644 128.886 68.4947 129.408 68.196C129.942 67.8973 130.32 67.4707 130.544 66.916C130.768 66.3507 130.88 65.6787 130.88 64.9C130.88 64.1107 130.768 63.4387 130.544 62.884C130.32 62.3187 129.942 61.8867 129.408 61.588C128.886 61.2893 128.166 61.14 127.248 61.14H125.776V68.644ZM137.921 70.692C137.249 70.692 136.694 70.5853 136.257 70.372C135.82 70.148 135.494 69.8547 135.281 69.492C135.078 69.1187 134.977 68.708 134.977 68.26C134.977 67.7693 135.1 67.3373 135.345 66.964C135.601 66.5907 135.98 66.2973 136.481 66.084C136.993 65.8707 137.633 65.764 138.401 65.764H140.401C140.401 65.3693 140.348 65.044 140.241 64.788C140.134 64.5213 139.969 64.324 139.745 64.196C139.521 64.068 139.222 64.004 138.849 64.004C138.444 64.004 138.097 64.0947 137.809 64.276C137.532 64.4467 137.361 64.7133 137.297 65.076H135.201C135.254 64.5 135.441 64.004 135.761 63.588C136.092 63.1613 136.524 62.8307 137.057 62.596C137.601 62.3613 138.204 62.244 138.865 62.244C139.622 62.244 140.278 62.372 140.833 62.628C141.388 62.884 141.814 63.252 142.113 63.732C142.412 64.212 142.561 64.804 142.561 65.508V70.5H140.737L140.497 69.268C140.38 69.4813 140.241 69.6733 140.081 69.844C139.921 70.0147 139.734 70.164 139.521 70.292C139.308 70.42 139.068 70.516 138.801 70.58C138.534 70.6547 138.241 70.692 137.921 70.692ZM138.433 69.028C138.71 69.028 138.956 68.98 139.169 68.884C139.393 68.7773 139.585 68.6387 139.745 68.468C139.905 68.2867 140.028 68.084 140.113 67.86C140.209 67.6253 140.273 67.3747 140.305 67.108V67.092H138.657C138.326 67.092 138.054 67.1347 137.841 67.22C137.638 67.2947 137.489 67.4067 137.393 67.556C137.297 67.7053 137.249 67.876 137.249 68.068C137.249 68.2813 137.297 68.4573 137.393 68.596C137.489 68.7347 137.628 68.8413 137.809 68.916C137.99 68.9907 138.198 69.028 138.433 69.028ZM148.434 70.5C147.869 70.5 147.373 70.4147 146.946 70.244C146.53 70.0627 146.205 69.7693 145.97 69.364C145.736 68.948 145.618 68.3827 145.618 67.668V64.244H144.242V62.436H145.618L145.858 60.244H147.778V62.436H149.906V64.244H147.778V67.7C147.778 68.0627 147.858 68.3133 148.018 68.452C148.178 68.5907 148.45 68.66 148.834 68.66H149.89V70.5H148.434ZM154.764 70.692C154.092 70.692 153.537 70.5853 153.1 70.372C152.663 70.148 152.337 69.8547 152.124 69.492C151.921 69.1187 151.82 68.708 151.82 68.26C151.82 67.7693 151.943 67.3373 152.188 66.964C152.444 66.5907 152.823 66.2973 153.324 66.084C153.836 65.8707 154.476 65.764 155.244 65.764H157.244C157.244 65.3693 157.191 65.044 157.084 64.788C156.977 64.5213 156.812 64.324 156.588 64.196C156.364 64.068 156.065 64.004 155.692 64.004C155.287 64.004 154.94 64.0947 154.652 64.276C154.375 64.4467 154.204 64.7133 154.14 65.076H152.044C152.097 64.5 152.284 64.004 152.604 63.588C152.935 63.1613 153.367 62.8307 153.9 62.596C154.444 62.3613 155.047 62.244 155.708 62.244C156.465 62.244 157.121 62.372 157.676 62.628C158.231 62.884 158.657 63.252 158.956 63.732C159.255 64.212 159.404 64.804 159.404 65.508V70.5H157.58L157.34 69.268C157.223 69.4813 157.084 69.6733 156.924 69.844C156.764 70.0147 156.577 70.164 156.364 70.292C156.151 70.42 155.911 70.516 155.644 70.58C155.377 70.6547 155.084 70.692 154.764 70.692ZM155.276 69.028C155.553 69.028 155.799 68.98 156.012 68.884C156.236 68.7773 156.428 68.6387 156.588 68.468C156.748 68.2867 156.871 68.084 156.956 67.86C157.052 67.6253 157.116 67.3747 157.148 67.108V67.092H155.5C155.169 67.092 154.897 67.1347 154.684 67.22C154.481 67.2947 154.332 67.4067 154.236 67.556C154.14 67.7053 154.092 67.876 154.092 68.068C154.092 68.2813 154.14 68.4573 154.236 68.596C154.332 68.7347 154.471 68.8413 154.652 68.916C154.833 68.9907 155.041 69.028 155.276 69.028Z" fill="#667085"/>
<rect x="231" y="43" width="44" height="44" rx="22" fill="#02B14F" fill-opacity="0.2"/>
<rect x="236.5" y="48.5" width="33" height="33" rx="16.5" fill="#02B14F" fill-opacity="0.2"/>
<rect x="242" y="54" width="22" height="22" rx="11" fill="#02B14F"/>
<path fill-rule="evenodd" clip-rule="evenodd" d="M256.689 62.4111C256.904 62.6259 256.904 62.9741 256.689 63.1889L252.289 67.5889C252.074 67.8037 251.726 67.8037 251.511 67.5889L249.311 65.3889C249.096 65.1741 249.096 64.8259 249.311 64.6111C249.526 64.3963 249.874 64.3963 250.089 64.6111L251.9 66.4222L255.911 62.4111C256.126 62.1963 256.474 62.1963 256.689 62.4111Z" fill="white"/>
</svg>
