<svg width="345" height="170" viewBox="0 0 345 170" fill="none" xmlns="http://www.w3.org/2000/svg">
<rect width="345" height="170" rx="10" fill="white"/>
<mask id="path-2-inside-1_624_20967" fill="white">
<path d="M25.3413 25.3438H320.338V85.0023H25.3413V25.3438Z"/>
</mask>
<path d="M25.3413 25.3438H320.338V85.0023H25.3413V25.3438Z" fill="white"/>
<path d="M320.338 85.0023V84.116H25.3413V85.0023V85.8886H320.338V85.0023Z" fill="#E3E8EF" fill-opacity="0.3" mask="url(#path-2-inside-1_624_20967)"/>
<path d="M40.9722 39.5792L38.416 48.2031H36.8153L35.0036 41.6762L33.0803 48.2031L31.492 48.2155L29.0475 39.5792H30.549L32.3358 46.6024L34.2715 39.5792H35.8598L37.6591 46.5652L39.4583 39.5792H40.9722ZM42.8586 40.4602C42.6021 40.4602 42.387 40.3733 42.2133 40.1996C42.0396 40.0259 41.9527 39.8108 41.9527 39.5543C41.9527 39.2979 42.0396 39.0828 42.2133 38.9091C42.387 38.7354 42.6021 38.6485 42.8586 38.6485C43.1067 38.6485 43.3177 38.7354 43.4914 38.9091C43.6651 39.0828 43.752 39.2979 43.752 39.5543C43.752 39.8108 43.6651 40.0259 43.4914 40.1996C43.3177 40.3733 43.1067 40.4602 42.8586 40.4602ZM43.5534 41.366V48.2031H42.1389V41.366H43.5534ZM47.061 42.52V46.3046C47.061 46.5611 47.1189 46.7472 47.2347 46.863C47.3588 46.9705 47.5656 47.0243 47.8552 47.0243H48.7238V48.2031H47.607C46.97 48.2031 46.4819 48.0542 46.1428 47.7564C45.8036 47.4586 45.634 46.9747 45.634 46.3046V42.52H44.8275V41.366H45.634V39.666H47.061V41.366H48.7238V42.52H47.061ZM53.564 41.2543C54.0851 41.2543 54.5484 41.366 54.9537 41.5894C55.3674 41.8127 55.69 42.1436 55.9216 42.582C56.1615 43.0205 56.2815 43.5499 56.2815 44.1703V48.2031H54.8793V44.3813C54.8793 43.7691 54.7262 43.3017 54.4202 42.9791C54.1141 42.6482 53.6963 42.4828 53.1669 42.4828C52.6375 42.4828 52.2156 42.6482 51.9012 42.9791C51.5951 43.3017 51.4421 43.7691 51.4421 44.3813V48.2031H50.0275V39.0208H51.4421V42.1601C51.682 41.8706 51.9839 41.6473 52.3479 41.4901C52.7202 41.3329 53.1255 41.2543 53.564 41.2543ZM57.6143 44.7535C57.6143 44.0669 57.7549 43.4589 58.0362 42.9295C58.3257 42.4 58.7145 41.9906 59.2026 41.701C59.6989 41.4032 60.2491 41.2543 60.8529 41.2543C61.2997 41.2543 61.7381 41.3536 62.1683 41.5521C62.6067 41.7424 62.9541 41.9988 63.2106 42.3215V39.0208H64.6376V48.2031H63.2106V47.1732C62.9789 47.5041 62.6563 47.7771 62.2427 47.9922C61.8374 48.2073 61.37 48.3148 60.8405 48.3148C60.2449 48.3148 59.6989 48.1659 59.2026 47.8681C58.7145 47.562 58.3257 47.1401 58.0362 46.6024C57.7549 46.0564 57.6143 45.4401 57.6143 44.7535ZM63.2106 44.7784C63.2106 44.3068 63.1113 43.8973 62.9128 43.5499C62.7225 43.2025 62.4702 42.9378 62.1558 42.7558C61.8415 42.5738 61.5023 42.4828 61.1383 42.4828C60.7744 42.4828 60.4352 42.5738 60.1208 42.7558C59.8065 42.9295 59.55 43.1901 59.3515 43.5375C59.1612 43.8767 59.0661 44.282 59.0661 44.7535C59.0661 45.2251 59.1612 45.6387 59.3515 45.9944C59.55 46.3501 59.8065 46.6231 60.1208 46.8134C60.4435 46.9954 60.7826 47.0864 61.1383 47.0864C61.5023 47.0864 61.8415 46.9954 62.1558 46.8134C62.4702 46.6314 62.7225 46.3667 62.9128 46.0192C63.1113 45.6635 63.2106 45.2499 63.2106 44.7784ZM67.9101 42.3587C68.1169 42.0112 68.3899 41.7424 68.7291 41.5521C69.0765 41.3536 69.486 41.2543 69.9575 41.2543V42.7185H69.5977C69.0434 42.7185 68.6216 42.8592 68.332 43.1404C68.0508 43.4217 67.9101 43.9098 67.9101 44.6046V48.2031H66.4956V41.366H67.9101V42.3587ZM70.7863 44.7535C70.7863 44.0669 70.9269 43.4589 71.2082 42.9295C71.4977 42.4 71.8865 41.9906 72.3746 41.701C72.8709 41.4032 73.4169 41.2543 74.0125 41.2543C74.5502 41.2543 75.0176 41.3619 75.4147 41.5769C75.82 41.7838 76.1427 42.0443 76.3826 42.3587V41.366H77.8096V48.2031H76.3826V47.1856C76.1427 47.5082 75.8159 47.7771 75.4023 47.9922C74.9887 48.2073 74.5171 48.3148 73.9877 48.3148C73.4004 48.3148 72.8627 48.1659 72.3746 47.8681C71.8865 47.562 71.4977 47.1401 71.2082 46.6024C70.9269 46.0564 70.7863 45.4401 70.7863 44.7535ZM76.3826 44.7784C76.3826 44.3068 76.2833 43.8973 76.0848 43.5499C75.8945 43.2025 75.6422 42.9378 75.3278 42.7558C75.0135 42.5738 74.6743 42.4828 74.3103 42.4828C73.9464 42.4828 73.6072 42.5738 73.2928 42.7558C72.9785 42.9295 72.722 43.1901 72.5235 43.5375C72.3332 43.8767 72.2381 44.282 72.2381 44.7535C72.2381 45.2251 72.3332 45.6387 72.5235 45.9944C72.722 46.3501 72.9785 46.6231 73.2928 46.8134C73.6155 46.9954 73.9546 47.0864 74.3103 47.0864C74.6743 47.0864 75.0135 46.9954 75.3278 46.8134C75.6422 46.6314 75.8945 46.3667 76.0848 46.0192C76.2833 45.6635 76.3826 45.2499 76.3826 44.7784ZM88.8499 41.366L86.728 48.2031H85.239L83.8616 43.1528L82.4843 48.2031H80.9953L78.861 41.366H80.3004L81.7274 46.863L83.1792 41.366H84.6558L86.0456 46.8382L87.4601 41.366H88.8499ZM89.4355 44.7535C89.4355 44.0669 89.5762 43.4589 89.8574 42.9295C90.1469 42.4 90.5357 41.9906 91.0238 41.701C91.5202 41.4032 92.0661 41.2543 92.6617 41.2543C93.1995 41.2543 93.6668 41.3619 94.0639 41.5769C94.4693 41.7838 94.7919 42.0443 95.0318 42.3587V41.366H96.4588V48.2031H95.0318V47.1856C94.7919 47.5082 94.4651 47.7771 94.0515 47.9922C93.6379 48.2073 93.1664 48.3148 92.6369 48.3148C92.0496 48.3148 91.5119 48.1659 91.0238 47.8681C90.5357 47.562 90.1469 47.1401 89.8574 46.6024C89.5762 46.0564 89.4355 45.4401 89.4355 44.7535ZM95.0318 44.7784C95.0318 44.3068 94.9325 43.8973 94.734 43.5499C94.5437 43.2025 94.2914 42.9378 93.9771 42.7558C93.6627 42.5738 93.3235 42.4828 92.9596 42.4828C92.5956 42.4828 92.2564 42.5738 91.9421 42.7558C91.6277 42.9295 91.3713 43.1901 91.1727 43.5375C90.9825 43.8767 90.8873 44.282 90.8873 44.7535C90.8873 45.2251 90.9825 45.6387 91.1727 45.9944C91.3713 46.3501 91.6277 46.6231 91.9421 46.8134C92.2647 46.9954 92.6038 47.0864 92.9596 47.0864C93.3235 47.0864 93.6627 46.9954 93.9771 46.8134C94.2914 46.6314 94.5437 46.3667 94.734 46.0192C94.9325 45.6635 95.0318 45.2499 95.0318 44.7784ZM99.7313 39.0208V48.2031H98.3168V39.0208H99.7313ZM110.061 43.1156V44.3068H104.961V43.1156H110.061ZM114.757 44.4912C114.757 43.7679 114.923 43.1192 115.257 42.5448C115.597 41.9705 116.054 41.5238 116.629 41.2047C117.21 40.8785 117.845 40.7154 118.532 40.7154C119.319 40.7154 120.018 40.9104 120.628 41.3004C121.245 41.6833 121.691 42.2293 121.968 42.9383H120.511C120.319 42.5484 120.053 42.2576 119.713 42.0662C119.373 41.8748 118.979 41.779 118.532 41.779C118.043 41.779 117.607 41.8889 117.224 42.1087C116.841 42.3286 116.54 42.6441 116.32 43.0553C116.107 43.4666 116.001 43.9452 116.001 44.4912C116.001 45.0372 116.107 45.5158 116.32 45.927C116.54 46.3383 116.841 46.6574 117.224 46.8843C117.607 47.1041 118.043 47.214 118.532 47.214C118.979 47.214 119.373 47.1183 119.713 46.9268C120.053 46.7354 120.319 46.4447 120.511 46.0547H121.968C121.691 46.7637 121.245 47.3097 120.628 47.6926C120.018 48.0755 119.319 48.2669 118.532 48.2669C117.837 48.2669 117.203 48.1074 116.629 47.7883C116.054 47.4622 115.597 47.0119 115.257 46.4376C114.923 45.8632 114.757 45.2144 114.757 44.4912ZM126.418 42.247C126.865 42.247 127.262 42.3427 127.609 42.5342C127.964 42.7256 128.241 43.0092 128.439 43.3851C128.645 43.7609 128.748 44.2147 128.748 44.7465V48.2031H127.546V44.9273C127.546 44.4026 127.414 44.0019 127.152 43.7254C126.89 43.4418 126.532 43.3 126.078 43.3C125.624 43.3 125.262 43.4418 124.993 43.7254C124.731 44.0019 124.599 44.4026 124.599 44.9273V48.2031H123.387V40.3325H124.599V43.0234C124.805 42.7753 125.064 42.5838 125.376 42.4491C125.695 42.3144 126.042 42.247 126.418 42.247ZM131.507 43.1936C131.684 42.8958 131.918 42.6654 132.209 42.5023C132.506 42.3321 132.857 42.247 133.262 42.247V43.502H132.953C132.478 43.502 132.116 43.6226 131.868 43.8637C131.627 44.1047 131.507 44.5231 131.507 45.1187V48.2031H130.294V42.3427H131.507V43.1936ZM134.993 41.5663C134.773 41.5663 134.589 41.4919 134.44 41.343C134.291 41.1941 134.217 41.0097 134.217 40.7899C134.217 40.5701 134.291 40.3857 134.44 40.2368C134.589 40.0879 134.773 40.0135 134.993 40.0135C135.206 40.0135 135.386 40.0879 135.535 40.2368C135.684 40.3857 135.759 40.5701 135.759 40.7899C135.759 41.0097 135.684 41.1941 135.535 41.343C135.386 41.4919 135.206 41.5663 134.993 41.5663ZM135.589 42.3427V48.2031H134.376V42.3427H135.589ZM139.308 48.2988C138.847 48.2988 138.432 48.2173 138.063 48.0542C137.702 47.884 137.414 47.6571 137.202 47.3735C136.989 47.0828 136.876 46.7602 136.861 46.4057H138.116C138.138 46.6538 138.255 46.863 138.467 47.0332C138.687 47.1963 138.96 47.2778 139.286 47.2778C139.627 47.2778 139.889 47.214 140.073 47.0864C140.265 46.9516 140.361 46.7815 140.361 46.5758C140.361 46.356 140.254 46.1929 140.042 46.0866C139.836 45.9802 139.506 45.8632 139.052 45.7356C138.613 45.6151 138.255 45.4981 137.978 45.3846C137.702 45.2712 137.461 45.0974 137.255 44.8634C137.056 44.6295 136.957 44.321 136.957 43.9381C136.957 43.6261 137.049 43.3425 137.234 43.0872C137.418 42.8249 137.68 42.6193 138.021 42.4704C138.368 42.3215 138.765 42.247 139.212 42.247C139.878 42.247 140.414 42.4172 140.818 42.7575C141.229 43.0908 141.449 43.5481 141.477 44.1296H140.265C140.244 43.8672 140.137 43.658 139.946 43.502C139.754 43.3461 139.496 43.2681 139.169 43.2681C138.85 43.2681 138.606 43.3283 138.436 43.4489C138.265 43.5694 138.18 43.7289 138.18 43.9275C138.18 44.0835 138.237 44.2147 138.35 44.321C138.464 44.4274 138.602 44.5125 138.765 44.5763C138.928 44.633 139.169 44.7075 139.488 44.7996C139.914 44.9131 140.261 45.0301 140.531 45.1506C140.807 45.2641 141.045 45.4342 141.243 45.6611C141.442 45.888 141.545 46.1894 141.552 46.5652C141.552 46.8985 141.46 47.1963 141.275 47.4586C141.091 47.721 140.829 47.9266 140.488 48.0755C140.155 48.2244 139.761 48.2988 139.308 48.2988ZM145.221 44.4912C145.221 43.7679 145.387 43.1192 145.721 42.5448C146.061 41.9705 146.518 41.5238 147.093 41.2047C147.674 40.8785 148.309 40.7154 148.996 40.7154C149.783 40.7154 150.482 40.9104 151.092 41.3004C151.709 41.6833 152.155 42.2293 152.432 42.9383H150.975C150.783 42.5484 150.517 42.2576 150.177 42.0662C149.837 41.8748 149.443 41.779 148.996 41.779C148.507 41.779 148.071 41.8889 147.688 42.1087C147.305 42.3286 147.004 42.6441 146.784 43.0553C146.571 43.4666 146.465 43.9452 146.465 44.4912C146.465 45.0372 146.571 45.5158 146.784 45.927C147.004 46.3383 147.305 46.6574 147.688 46.8843C148.071 47.1041 148.507 47.214 148.996 47.214C149.443 47.214 149.837 47.1183 150.177 46.9268C150.517 46.7354 150.783 46.4447 150.975 46.0547H152.432C152.155 46.7637 151.709 47.3097 151.092 47.6926C150.482 48.0755 149.783 48.2669 148.996 48.2669C148.302 48.2669 147.667 48.1074 147.093 47.7883C146.518 47.4622 146.061 47.0119 145.721 46.4376C145.387 45.8632 145.221 45.2144 145.221 44.4912ZM156.882 42.247C157.329 42.247 157.726 42.3427 158.073 42.5342C158.428 42.7256 158.705 43.0092 158.903 43.3851C159.109 43.7609 159.212 44.2147 159.212 44.7465V48.2031H158.01V44.9273C158.01 44.4026 157.879 44.0019 157.616 43.7254C157.354 43.4418 156.996 43.3 156.542 43.3C156.088 43.3 155.726 43.4418 155.457 43.7254C155.195 44.0019 155.064 44.4026 155.064 44.9273V48.2031H153.851V40.3325H155.064V43.0234C155.269 42.7753 155.528 42.5838 155.84 42.4491C156.159 42.3144 156.506 42.247 156.882 42.247ZM161.375 41.5663C161.155 41.5663 160.971 41.4919 160.822 41.343C160.673 41.1941 160.599 41.0097 160.599 40.7899C160.599 40.5701 160.673 40.3857 160.822 40.2368C160.971 40.0879 161.155 40.0135 161.375 40.0135C161.588 40.0135 161.769 40.0879 161.917 40.2368C162.066 40.3857 162.141 40.5701 162.141 40.7899C162.141 41.0097 162.066 41.1941 161.917 41.343C161.769 41.4919 161.588 41.5663 161.375 41.5663ZM161.971 42.3427V48.2031H160.758V42.3427H161.971ZM168.934 45.1293C168.934 45.3492 168.92 45.5477 168.891 45.725H164.413C164.449 46.1929 164.623 46.5687 164.935 46.8524C165.247 47.136 165.629 47.2778 166.083 47.2778C166.736 47.2778 167.196 47.0048 167.466 46.4588H168.774C168.597 46.9977 168.274 47.4409 167.806 47.7883C167.345 48.1287 166.771 48.2988 166.083 48.2988C165.523 48.2988 165.02 48.1748 164.573 47.9266C164.133 47.6713 163.786 47.3168 163.531 46.863C163.282 46.4021 163.158 45.8703 163.158 45.2676C163.158 44.6649 163.279 44.1367 163.52 43.6829C163.768 43.222 164.112 42.8674 164.552 42.6193C164.998 42.3711 165.509 42.247 166.083 42.247C166.636 42.247 167.129 42.3675 167.562 42.6086C167.994 42.8497 168.331 43.1901 168.572 43.6297C168.813 44.0622 168.934 44.5621 168.934 45.1293ZM167.668 44.7465C167.661 44.2997 167.501 43.9417 167.189 43.6722C166.877 43.4028 166.491 43.2681 166.03 43.2681C165.612 43.2681 165.254 43.4028 164.956 43.6722C164.658 43.9346 164.481 44.2927 164.424 44.7465H167.668ZM177.221 42.247C177.682 42.247 178.093 42.3427 178.455 42.5342C178.824 42.7256 179.111 43.0092 179.316 43.3851C179.529 43.7609 179.635 44.2147 179.635 44.7465V48.2031H178.434V44.9273C178.434 44.4026 178.302 44.0019 178.04 43.7254C177.778 43.4418 177.42 43.3 176.966 43.3C176.512 43.3 176.15 43.4418 175.881 43.7254C175.619 44.0019 175.487 44.4026 175.487 44.9273V48.2031H174.286V44.9273C174.286 44.4026 174.154 44.0019 173.892 43.7254C173.63 43.4418 173.272 43.3 172.818 43.3C172.364 43.3 172.002 43.4418 171.733 43.7254C171.471 44.0019 171.339 44.4026 171.339 44.9273V48.2031H170.127V42.3427H171.339V43.0128C171.538 42.7717 171.79 42.5838 172.095 42.4491C172.399 42.3144 172.726 42.247 173.073 42.247C173.541 42.247 173.959 42.3463 174.328 42.5448C174.697 42.7434 174.98 43.0305 175.179 43.4063C175.356 43.0518 175.633 42.7717 176.009 42.5661C176.384 42.3534 176.789 42.247 177.221 42.247ZM186.549 45.1293C186.549 45.3492 186.535 45.5477 186.507 45.725H182.029C182.065 46.1929 182.238 46.5687 182.55 46.8524C182.862 47.136 183.245 47.2778 183.699 47.2778C184.351 47.2778 184.812 47.0048 185.082 46.4588H186.39C186.213 46.9977 185.89 47.4409 185.422 47.7883C184.961 48.1287 184.387 48.2988 183.699 48.2988C183.139 48.2988 182.635 48.1748 182.189 47.9266C181.749 47.6713 181.402 47.3168 181.146 46.863C180.898 46.4021 180.774 45.8703 180.774 45.2676C180.774 44.6649 180.895 44.1367 181.136 43.6829C181.384 43.222 181.728 42.8674 182.167 42.6193C182.614 42.3711 183.125 42.247 183.699 42.247C184.252 42.247 184.745 42.3675 185.177 42.6086C185.61 42.8497 185.947 43.1901 186.188 43.6297C186.429 44.0622 186.549 44.5621 186.549 45.1293ZM185.284 44.7465C185.277 44.2997 185.117 43.9417 184.805 43.6722C184.493 43.4028 184.107 43.2681 183.646 43.2681C183.227 43.2681 182.869 43.4028 182.572 43.6722C182.274 43.9346 182.097 44.2927 182.04 44.7465H185.284ZM188.955 40.3325V48.2031H187.743V40.3325H188.955ZM191.164 41.5663C190.944 41.5663 190.76 41.4919 190.611 41.343C190.462 41.1941 190.387 41.0097 190.387 40.7899C190.387 40.5701 190.462 40.3857 190.611 40.2368C190.76 40.0879 190.944 40.0135 191.164 40.0135C191.377 40.0135 191.557 40.0879 191.706 40.2368C191.855 40.3857 191.93 40.5701 191.93 40.7899C191.93 41.0097 191.855 41.1941 191.706 41.343C191.557 41.4919 191.377 41.5663 191.164 41.5663ZM191.76 42.3427V48.2031H190.547V42.3427H191.76ZM198.723 45.1293C198.723 45.3492 198.708 45.5477 198.68 45.725H194.202C194.238 46.1929 194.411 46.5687 194.723 46.8524C195.035 47.136 195.418 47.2778 195.872 47.2778C196.524 47.2778 196.985 47.0048 197.255 46.4588H198.563C198.386 46.9977 198.063 47.4409 197.595 47.7883C197.134 48.1287 196.56 48.2988 195.872 48.2988C195.312 48.2988 194.809 48.1748 194.362 47.9266C193.922 47.6713 193.575 47.3168 193.32 46.863C193.071 46.4021 192.947 45.8703 192.947 45.2676C192.947 44.6649 193.068 44.1367 193.309 43.6829C193.557 43.222 193.901 42.8674 194.341 42.6193C194.787 42.3711 195.298 42.247 195.872 42.247C196.425 42.247 196.918 42.3675 197.351 42.6086C197.783 42.8497 198.12 43.1901 198.361 43.6297C198.602 44.0622 198.723 44.5621 198.723 45.1293ZM197.457 44.7465C197.45 44.2997 197.29 43.9417 196.978 43.6722C196.666 43.4028 196.28 43.2681 195.819 43.2681C195.401 43.2681 195.043 43.4028 194.745 43.6722C194.447 43.9346 194.27 44.2927 194.213 44.7465H197.457Z" fill="#1A1A1A"/>
<path d="M32.9864 65.8848V66.5407H30.3008V68.6236H32.4812V69.2794H30.3008V72.0625H29.4942V65.8848H32.9864ZM38.3921 69.4478C38.3921 69.6015 38.3833 69.764 38.3655 69.9353H34.4834C34.513 70.4139 34.6755 70.7891 34.9709 71.061C35.2723 71.3268 35.6357 71.4598 36.0611 71.4598C36.4097 71.4598 36.6992 71.38 36.9297 71.2205C37.166 71.055 37.3315 70.8364 37.426 70.5646H38.2946C38.1646 71.0314 37.9047 71.4125 37.5147 71.708C37.1247 71.9975 36.6402 72.1423 36.0611 72.1423C35.6002 72.1423 35.1866 72.0389 34.8202 71.8321C34.4598 71.6252 34.1762 71.3328 33.9694 70.9546C33.7626 70.5705 33.6591 70.1274 33.6591 69.6251C33.6591 69.1228 33.7596 68.6826 33.9605 68.3045C34.1614 67.9263 34.4421 67.6368 34.8025 67.4359C35.1689 67.2291 35.5884 67.1257 36.0611 67.1257C36.522 67.1257 36.9297 67.2261 37.2842 67.427C37.6388 67.6279 37.9106 67.9056 38.0996 68.2602C38.2946 68.6088 38.3921 69.0047 38.3921 69.4478ZM37.559 69.2794C37.559 68.9722 37.491 68.7092 37.3551 68.4906C37.2192 68.2661 37.0331 68.0977 36.7967 67.9854C36.5663 67.8672 36.3093 67.8081 36.0256 67.8081C35.6179 67.8081 35.2693 67.9381 34.9798 68.1981C34.6961 68.4581 34.5337 68.8185 34.4923 69.2794H37.559ZM40.2633 68.1095C40.4288 67.8199 40.671 67.5836 40.9901 67.4004C41.3092 67.2172 41.6726 67.1257 42.0803 67.1257C42.5175 67.1257 42.9105 67.2291 43.2591 67.4359C43.6077 67.6427 43.8825 67.9352 44.0834 68.3133C44.2843 68.6856 44.3847 69.1199 44.3847 69.6162C44.3847 70.1067 44.2843 70.5439 44.0834 70.928C43.8825 71.3121 43.6048 71.6105 43.2502 71.8232C42.9016 72.0359 42.5116 72.1423 42.0803 72.1423C41.6608 72.1423 41.2915 72.0507 40.9724 71.8675C40.6592 71.6843 40.4229 71.4509 40.2633 71.1673V72.0625H39.4568V65.5037H40.2633V68.1095ZM43.5605 69.6162C43.5605 69.2499 43.4866 68.9308 43.3389 68.659C43.1912 68.3872 42.9903 68.1804 42.7362 68.0386C42.488 67.8968 42.2132 67.8259 41.9119 67.8259C41.6164 67.8259 41.3417 67.8997 41.0876 68.0474C40.8394 68.1893 40.6385 68.399 40.4849 68.6767C40.3372 68.9485 40.2633 69.2647 40.2633 69.6251C40.2633 69.9914 40.3372 70.3135 40.4849 70.5912C40.6385 70.863 40.8394 71.0728 41.0876 71.2205C41.3417 71.3623 41.6164 71.4332 41.9119 71.4332C42.2132 71.4332 42.488 71.3623 42.7362 71.2205C42.9903 71.0728 43.1912 70.863 43.3389 70.5912C43.4866 70.3135 43.5605 69.9885 43.5605 69.6162ZM47.4637 66.39V65.6544H49.13V72.0625H48.3146V66.39H47.4637ZM50.3204 70.6355V70.0239L53.4314 65.7164H54.3975V69.9353H55.2839V70.6355H54.3975V72.0625H53.5998V70.6355H50.3204ZM53.6353 66.5584L51.2511 69.9353H53.6353V66.5584ZM57.0557 70.9457L56.063 73.3299H55.5223L56.1694 70.9457H57.0557ZM60.1121 71.4155C60.8626 70.8128 61.4505 70.3194 61.8759 69.9353C62.3014 69.5453 62.6588 69.1406 62.9484 68.721C63.2438 68.2956 63.3915 67.879 63.3915 67.4713C63.3915 67.0873 63.297 66.7859 63.1079 66.5673C62.9247 66.3427 62.6263 66.2305 62.2127 66.2305C61.8109 66.2305 61.4978 66.3575 61.2732 66.6116C61.0546 66.8598 60.9364 67.1936 60.9187 67.6131H60.1387C60.1624 66.9513 60.3633 66.4402 60.7414 66.0798C61.1196 65.7194 61.6071 65.5391 62.2039 65.5391C62.8125 65.5391 63.294 65.7075 63.6486 66.0443C64.009 66.3811 64.1892 66.845 64.1892 67.4359C64.1892 67.9263 64.0415 68.4049 63.7461 68.8717C63.4565 69.3326 63.1256 69.7403 62.7534 70.0949C62.3811 70.4435 61.9055 70.8512 61.3264 71.318H64.3754V71.9916H60.1121V71.4155ZM65.3077 68.792C65.3077 67.7756 65.4732 66.9838 65.8041 66.4166C66.135 65.8434 66.714 65.5569 67.5413 65.5569C68.3626 65.5569 68.9387 65.8434 69.2696 66.4166C69.6005 66.9838 69.766 67.7756 69.766 68.792C69.766 69.826 69.6005 70.6296 69.2696 71.2028C68.9387 71.7759 68.3626 72.0625 67.5413 72.0625C66.714 72.0625 66.135 71.7759 65.8041 71.2028C65.4732 70.6296 65.3077 69.826 65.3077 68.792ZM68.9683 68.792C68.9683 68.2779 68.9328 67.8436 68.8619 67.4891C68.7969 67.1286 68.6581 66.8391 68.4453 66.6205C68.2385 66.4018 67.9372 66.2925 67.5413 66.2925C67.1395 66.2925 66.8322 66.4018 66.6195 66.6205C66.4127 66.8391 66.2738 67.1286 66.2029 67.4891C66.1379 67.8436 66.1054 68.2779 66.1054 68.792C66.1054 69.3237 66.1379 69.7699 66.2029 70.1303C66.2738 70.4907 66.4127 70.7803 66.6195 70.9989C66.8322 71.2175 67.1395 71.3268 67.5413 71.3268C67.9372 71.3268 68.2385 71.2175 68.4453 70.9989C68.6581 70.7803 68.7969 70.4907 68.8619 70.1303C68.9328 69.7699 68.9683 69.3237 68.9683 68.792ZM70.7757 71.4155C71.5262 70.8128 72.1141 70.3194 72.5395 69.9353C72.965 69.5453 73.3225 69.1406 73.612 68.721C73.9074 68.2956 74.0552 67.879 74.0552 67.4713C74.0552 67.0873 73.9606 66.7859 73.7715 66.5673C73.5884 66.3427 73.29 66.2305 72.8763 66.2305C72.4745 66.2305 72.1614 66.3575 71.9368 66.6116C71.7182 66.8598 71.6 67.1936 71.5823 67.6131H70.8023C70.826 66.9513 71.0269 66.4402 71.405 66.0798C71.7832 65.7194 72.2707 65.5391 72.8675 65.5391C73.4761 65.5391 73.9577 65.7075 74.3122 66.0443C74.6726 66.3811 74.8529 66.845 74.8529 67.4359C74.8529 67.9263 74.7051 68.4049 74.4097 68.8717C74.1202 69.3326 73.7893 69.7403 73.417 70.0949C73.0447 70.4435 72.5691 70.8512 71.99 71.318H75.039V71.9916H70.7757V71.4155ZM80.0573 66.3546H76.9463V68.3754C77.0822 68.1863 77.2831 68.0327 77.549 67.9145C77.8149 67.7904 78.1015 67.7284 78.4088 67.7284C78.8992 67.7284 79.298 67.8318 79.6053 68.0386C79.9126 68.2395 80.1312 68.5024 80.2612 68.8274C80.3971 69.1465 80.465 69.4862 80.465 69.8467C80.465 70.2721 80.3853 70.6532 80.2257 70.99C80.0662 71.3268 79.821 71.5927 79.4901 71.7877C79.1651 71.9827 78.7603 72.0802 78.2758 72.0802C77.6554 72.0802 77.1531 71.9207 76.7691 71.6016C76.385 71.2825 76.1516 70.8571 76.0689 70.3253H76.8577C76.9345 70.6621 77.097 70.925 77.3452 71.1141C77.5933 71.3032 77.9065 71.3978 78.2847 71.3978C78.7515 71.3978 79.103 71.2589 79.3394 70.9812C79.5758 70.6976 79.6939 70.3253 79.6939 69.8644C79.6939 69.4035 79.5758 69.049 79.3394 68.8008C79.103 68.5467 78.7544 68.4197 78.2935 68.4197C77.9804 68.4197 77.7056 68.4965 77.4692 68.6501C77.2388 68.7979 77.0704 69.0017 76.964 69.2617H76.2018V65.6455H80.0573V66.3546ZM82.503 70.9457L81.5103 73.3299H80.9696L81.6166 70.9457H82.503ZM85.4442 66.39V65.6544H87.1105V72.0625H86.2951V66.39H85.4442ZM88.4959 68.792C88.4959 67.7756 88.6614 66.9838 88.9923 66.4166C89.3232 65.8434 89.9022 65.5569 90.7295 65.5569C91.5508 65.5569 92.1269 65.8434 92.4578 66.4166C92.7887 66.9838 92.9541 67.7756 92.9541 68.792C92.9541 69.826 92.7887 70.6296 92.4578 71.2028C92.1269 71.7759 91.5508 72.0625 90.7295 72.0625C89.9022 72.0625 89.3232 71.7759 88.9923 71.2028C88.6614 70.6296 88.4959 69.826 88.4959 68.792ZM92.1564 68.792C92.1564 68.2779 92.121 67.8436 92.0501 67.4891C91.9851 67.1286 91.8462 66.8391 91.6335 66.6205C91.4267 66.4018 91.1254 66.2925 90.7295 66.2925C90.3277 66.2925 90.0204 66.4018 89.8077 66.6205C89.6009 66.8391 89.462 67.1286 89.3911 67.4891C89.3261 67.8436 89.2936 68.2779 89.2936 68.792C89.2936 69.3237 89.3261 69.7699 89.3911 70.1303C89.462 70.4907 89.6009 70.7803 89.8077 70.9989C90.0204 71.2175 90.3277 71.3268 90.7295 71.3268C91.1254 71.3268 91.4267 71.2175 91.6335 70.9989C91.8462 70.7803 91.9851 70.4907 92.0501 70.1303C92.121 69.7699 92.1564 69.3237 92.1564 68.792ZM94.4514 72.1157C94.2978 72.1157 94.1678 72.0625 94.0614 71.9561C93.9551 71.8498 93.9019 71.7198 93.9019 71.5662C93.9019 71.4125 93.9551 71.2825 94.0614 71.1762C94.1678 71.0698 94.2978 71.0166 94.4514 71.0166C94.5991 71.0166 94.7232 71.0698 94.8237 71.1762C94.93 71.2825 94.9832 71.4125 94.9832 71.5662C94.9832 71.7198 94.93 71.8498 94.8237 71.9561C94.7232 72.0625 94.5991 72.1157 94.4514 72.1157ZM94.4514 68.3222C94.2978 68.3222 94.1678 68.269 94.0614 68.1627C93.9551 68.0563 93.9019 67.9263 93.9019 67.7727C93.9019 67.619 93.9551 67.4891 94.0614 67.3827C94.1678 67.2763 94.2978 67.2232 94.4514 67.2232C94.5991 67.2232 94.7232 67.2763 94.8237 67.3827C94.93 67.4891 94.9832 67.619 94.9832 67.7727C94.9832 67.9263 94.93 68.0563 94.8237 68.1627C94.7232 68.269 94.5991 68.3222 94.4514 68.3222ZM95.7533 70.6355V70.0239L98.8644 65.7164H99.8304V69.9353H100.717V70.6355H99.8304V72.0625H99.0328V70.6355H95.7533ZM99.0682 66.5584L96.684 69.9353H99.0682V66.5584ZM102.692 68.7299C102.362 68.5999 102.107 68.4108 101.93 68.1627C101.753 67.9145 101.664 67.6131 101.664 67.2586C101.664 66.9395 101.744 66.653 101.904 66.3989C102.063 66.1389 102.3 65.935 102.613 65.7873C102.932 65.6337 103.316 65.5569 103.765 65.5569C104.214 65.5569 104.595 65.6337 104.908 65.7873C105.227 65.935 105.467 66.1389 105.626 66.3989C105.792 66.653 105.874 66.9395 105.874 67.2586C105.874 67.6013 105.783 67.9027 105.6 68.1627C105.416 68.4167 105.165 68.6058 104.846 68.7299C105.213 68.8422 105.502 69.0401 105.715 69.3237C105.933 69.6015 106.043 69.9383 106.043 70.3342C106.043 70.7182 105.948 71.055 105.759 71.3446C105.57 71.6282 105.301 71.8498 104.953 72.0093C104.61 72.163 104.214 72.2398 103.765 72.2398C103.316 72.2398 102.92 72.163 102.577 72.0093C102.24 71.8498 101.977 71.6282 101.788 71.3446C101.599 71.055 101.505 70.7182 101.505 70.3342C101.505 69.9383 101.611 69.5985 101.824 69.3149C102.037 69.0313 102.326 68.8363 102.692 68.7299ZM105.094 67.3561C105.094 66.9957 104.976 66.7179 104.74 66.523C104.504 66.328 104.179 66.2305 103.765 66.2305C103.357 66.2305 103.035 66.328 102.799 66.523C102.562 66.7179 102.444 66.9986 102.444 67.365C102.444 67.6959 102.565 67.9618 102.808 68.1627C103.056 68.3636 103.375 68.464 103.765 68.464C104.161 68.464 104.48 68.3636 104.722 68.1627C104.97 67.9559 105.094 67.687 105.094 67.3561ZM103.765 69.0844C103.328 69.0844 102.97 69.1878 102.692 69.3947C102.415 69.5956 102.276 69.8999 102.276 70.3076C102.276 70.6857 102.409 70.99 102.675 71.2205C102.947 71.4509 103.31 71.5662 103.765 71.5662C104.22 71.5662 104.58 71.4509 104.846 71.2205C105.112 70.99 105.245 70.6857 105.245 70.3076C105.245 69.9117 105.109 69.6103 104.837 69.4035C104.566 69.1908 104.208 69.0844 103.765 69.0844ZM107.504 72.1157C107.35 72.1157 107.22 72.0625 107.114 71.9561C107.008 71.8498 106.954 71.7198 106.954 71.5662C106.954 71.4125 107.008 71.2825 107.114 71.1762C107.22 71.0698 107.35 71.0166 107.504 71.0166C107.652 71.0166 107.776 71.0698 107.876 71.1762C107.983 71.2825 108.036 71.4125 108.036 71.5662C108.036 71.7198 107.983 71.8498 107.876 71.9561C107.776 72.0625 107.652 72.1157 107.504 72.1157ZM107.504 68.3222C107.35 68.3222 107.22 68.269 107.114 68.1627C107.008 68.0563 106.954 67.9263 106.954 67.7727C106.954 67.619 107.008 67.4891 107.114 67.3827C107.22 67.2763 107.35 67.2232 107.504 67.2232C107.652 67.2232 107.776 67.2763 107.876 67.3827C107.983 67.4891 108.036 67.619 108.036 67.7727C108.036 67.9263 107.983 68.0563 107.876 68.1627C107.776 68.269 107.652 68.3222 107.504 68.3222ZM109.001 68.792C109.001 67.7756 109.166 66.9838 109.497 66.4166C109.828 65.8434 110.407 65.5569 111.234 65.5569C112.056 65.5569 112.632 65.8434 112.963 66.4166C113.294 66.9838 113.459 67.7756 113.459 68.792C113.459 69.826 113.294 70.6296 112.963 71.2028C112.632 71.7759 112.056 72.0625 111.234 72.0625C110.407 72.0625 109.828 71.7759 109.497 71.2028C109.166 70.6296 109.001 69.826 109.001 68.792ZM112.661 68.792C112.661 68.2779 112.626 67.8436 112.555 67.4891C112.49 67.1286 112.351 66.8391 112.138 66.6205C111.932 66.4018 111.63 66.2925 111.234 66.2925C110.833 66.2925 110.525 66.4018 110.313 66.6205C110.106 66.8391 109.967 67.1286 109.896 67.4891C109.831 67.8436 109.799 68.2779 109.799 68.792C109.799 69.3237 109.831 69.7699 109.896 70.1303C109.967 70.4907 110.106 70.7803 110.313 70.9989C110.525 71.2175 110.833 71.3268 111.234 71.3268C111.63 71.3268 111.932 71.2175 112.138 70.9989C112.351 70.7803 112.49 70.4907 112.555 70.1303C112.626 69.7699 112.661 69.3237 112.661 68.792ZM114.566 68.792C114.566 67.7756 114.732 66.9838 115.063 66.4166C115.394 65.8434 115.973 65.5569 116.8 65.5569C117.621 65.5569 118.197 65.8434 118.528 66.4166C118.859 66.9838 119.025 67.7756 119.025 68.792C119.025 69.826 118.859 70.6296 118.528 71.2028C118.197 71.7759 117.621 72.0625 116.8 72.0625C115.973 72.0625 115.394 71.7759 115.063 71.2028C114.732 70.6296 114.566 69.826 114.566 68.792ZM118.227 68.792C118.227 68.2779 118.191 67.8436 118.121 67.4891C118.056 67.1286 117.917 66.8391 117.704 66.6205C117.497 66.4018 117.196 66.2925 116.8 66.2925C116.398 66.2925 116.091 66.4018 115.878 66.6205C115.671 66.8391 115.532 67.1286 115.462 67.4891C115.397 67.8436 115.364 68.2779 115.364 68.792C115.364 69.3237 115.397 69.7699 115.462 70.1303C115.532 70.4907 115.671 70.7803 115.878 70.9989C116.091 71.2175 116.398 71.3268 116.8 71.3268C117.196 71.3268 117.497 71.2175 117.704 70.9989C117.917 70.7803 118.056 70.4907 118.121 70.1303C118.191 69.7699 118.227 69.3237 118.227 68.792ZM126.279 70.6887H123.585L123.089 72.0625H122.238L124.471 65.9203H125.402L127.627 72.0625H126.776L126.279 70.6887ZM126.049 70.0328L124.932 66.9129L123.815 70.0328H126.049ZM134.866 65.9291V72.0625H134.06V67.4891L132.021 72.0625H131.454L129.407 67.4802V72.0625H128.6V65.9291H129.469L131.738 70.9989L134.007 65.9291H134.866Z" fill="#626C7A"/>
<path d="M258.49 41.4901C258.548 40.729 258.842 40.1334 259.371 39.7032C259.9 39.2731 260.587 39.058 261.431 39.058C261.993 39.058 262.477 39.1614 262.883 39.3682C263.296 39.5668 263.607 39.8397 263.813 40.1872C264.028 40.5346 264.136 40.9276 264.136 41.366C264.136 41.8789 263.987 42.3215 263.689 42.6937C263.4 43.066 263.019 43.3059 262.548 43.4134V43.4755C263.085 43.6078 263.511 43.8684 263.826 44.2572C264.14 44.646 264.297 45.1548 264.297 45.7835C264.297 46.255 264.19 46.681 263.975 47.0615C263.76 47.4338 263.437 47.7275 263.007 47.9425C262.577 48.1576 262.06 48.2652 261.456 48.2652C260.579 48.2652 259.859 48.0377 259.297 47.5827C258.734 47.1194 258.42 46.4659 258.354 45.6221H259.446C259.503 46.1185 259.706 46.5238 260.054 46.8382C260.401 47.1525 260.864 47.3097 261.443 47.3097C262.022 47.3097 262.461 47.1608 262.759 46.863C263.065 46.5569 263.218 46.164 263.218 45.6842C263.218 45.0638 263.011 44.617 262.597 44.3441C262.184 44.0711 261.559 43.9346 260.724 43.9346H260.438V42.9915H260.736C261.497 42.9832 262.072 42.8592 262.461 42.6193C262.85 42.3711 263.044 41.9906 263.044 41.4777C263.044 41.0392 262.899 40.6877 262.61 40.4229C262.328 40.1582 261.923 40.0259 261.394 40.0259C260.881 40.0259 260.467 40.1582 260.153 40.4229C259.838 40.6877 259.652 41.0434 259.594 41.4901H258.49ZM265.822 43.6244C265.822 42.2015 266.053 41.093 266.517 40.2989C266.98 39.4964 267.791 39.0952 268.949 39.0952C270.099 39.0952 270.905 39.4964 271.368 40.2989C271.832 41.093 272.063 42.2015 272.063 43.6244C272.063 45.072 271.832 46.1971 271.368 46.9995C270.905 47.8019 270.099 48.2031 268.949 48.2031C267.791 48.2031 266.98 47.8019 266.517 46.9995C266.053 46.1971 265.822 45.072 265.822 43.6244ZM270.947 43.6244C270.947 42.9047 270.897 42.2966 270.798 41.8003C270.707 41.2957 270.512 40.8903 270.215 40.5843C269.925 40.2782 269.503 40.1251 268.949 40.1251C268.386 40.1251 267.956 40.2782 267.658 40.5843C267.369 40.8903 267.174 41.2957 267.075 41.8003C266.984 42.2966 266.939 42.9047 266.939 43.6244C266.939 44.3689 266.984 44.9934 267.075 45.4981C267.174 46.0027 267.369 46.408 267.658 46.7141C267.956 47.0202 268.386 47.1732 268.949 47.1732C269.503 47.1732 269.925 47.0202 270.215 46.7141C270.512 46.408 270.707 46.0027 270.798 45.4981C270.897 44.9934 270.947 44.3689 270.947 43.6244ZM274.966 46.6396L273.576 49.9776H272.819L273.725 46.6396H274.966ZM276.073 43.6244C276.073 42.2015 276.305 41.093 276.768 40.2989C277.232 39.4964 278.042 39.0952 279.2 39.0952C280.35 39.0952 281.157 39.4964 281.62 40.2989C282.083 41.093 282.315 42.2015 282.315 43.6244C282.315 45.072 282.083 46.1971 281.62 46.9995C281.157 47.8019 280.35 48.2031 279.2 48.2031C278.042 48.2031 277.232 47.8019 276.768 46.9995C276.305 46.1971 276.073 45.072 276.073 43.6244ZM281.198 43.6244C281.198 42.9047 281.149 42.2966 281.049 41.8003C280.958 41.2957 280.764 40.8903 280.466 40.5843C280.177 40.2782 279.755 40.1251 279.2 40.1251C278.638 40.1251 278.208 40.2782 277.91 40.5843C277.62 40.8903 277.426 41.2957 277.327 41.8003C277.236 42.2966 277.19 42.9047 277.19 43.6244C277.19 44.3689 277.236 44.9934 277.327 45.4981C277.426 46.0027 277.62 46.408 277.91 46.7141C278.208 47.0202 278.638 47.1732 279.2 47.1732C279.755 47.1732 280.177 47.0202 280.466 46.7141C280.764 46.408 280.958 46.0027 281.049 45.4981C281.149 44.9934 281.198 44.3689 281.198 43.6244ZM283.865 43.6244C283.865 42.2015 284.097 41.093 284.56 40.2989C285.023 39.4964 285.834 39.0952 286.992 39.0952C288.142 39.0952 288.949 39.4964 289.412 40.2989C289.875 41.093 290.107 42.2015 290.107 43.6244C290.107 45.072 289.875 46.1971 289.412 46.9995C288.949 47.8019 288.142 48.2031 286.992 48.2031C285.834 48.2031 285.023 47.8019 284.56 46.9995C284.097 46.1971 283.865 45.072 283.865 43.6244ZM288.99 43.6244C288.99 42.9047 288.94 42.2966 288.841 41.8003C288.75 41.2957 288.556 40.8903 288.258 40.5843C287.968 40.2782 287.546 40.1251 286.992 40.1251C286.43 40.1251 285.999 40.2782 285.702 40.5843C285.412 40.8903 285.218 41.2957 285.118 41.8003C285.027 42.2966 284.982 42.9047 284.982 43.6244C284.982 44.3689 285.027 44.9934 285.118 45.4981C285.218 46.0027 285.412 46.408 285.702 46.7141C285.999 47.0202 286.43 47.1732 286.992 47.1732C287.546 47.1732 287.968 47.0202 288.258 46.7141C288.556 46.408 288.75 46.0027 288.841 45.4981C288.94 44.9934 288.99 44.3689 288.99 43.6244ZM291.657 43.6244C291.657 42.2015 291.889 41.093 292.352 40.2989C292.815 39.4964 293.626 39.0952 294.784 39.0952C295.934 39.0952 296.74 39.4964 297.204 40.2989C297.667 41.093 297.898 42.2015 297.898 43.6244C297.898 45.072 297.667 46.1971 297.204 46.9995C296.74 47.8019 295.934 48.2031 294.784 48.2031C293.626 48.2031 292.815 47.8019 292.352 46.9995C291.889 46.1971 291.657 45.072 291.657 43.6244ZM296.782 43.6244C296.782 42.9047 296.732 42.2966 296.633 41.8003C296.542 41.2957 296.347 40.8903 296.05 40.5843C295.76 40.2782 295.338 40.1251 294.784 40.1251C294.221 40.1251 293.791 40.2782 293.493 40.5843C293.204 40.8903 293.009 41.2957 292.91 41.8003C292.819 42.2966 292.774 42.9047 292.774 43.6244C292.774 44.3689 292.819 44.9934 292.91 45.4981C293.009 46.0027 293.204 46.408 293.493 46.7141C293.791 47.0202 294.221 47.1732 294.784 47.1732C295.338 47.1732 295.76 47.0202 296.05 46.7141C296.347 46.408 296.542 46.0027 296.633 45.4981C296.732 44.9934 296.782 44.3689 296.782 43.6244ZM299.995 48.2776C299.78 48.2776 299.598 48.2031 299.449 48.0542C299.3 47.9053 299.225 47.7233 299.225 47.5082C299.225 47.2932 299.3 47.1112 299.449 46.9623C299.598 46.8134 299.78 46.7389 299.995 46.7389C300.201 46.7389 300.375 46.8134 300.516 46.9623C300.665 47.1112 300.739 47.2932 300.739 47.5082C300.739 47.7233 300.665 47.9053 300.516 48.0542C300.375 48.2031 300.201 48.2776 299.995 48.2776ZM302.054 43.6244C302.054 42.2015 302.286 41.093 302.749 40.2989C303.212 39.4964 304.023 39.0952 305.181 39.0952C306.331 39.0952 307.137 39.4964 307.601 40.2989C308.064 41.093 308.295 42.2015 308.295 43.6244C308.295 45.072 308.064 46.1971 307.601 46.9995C307.137 47.8019 306.331 48.2031 305.181 48.2031C304.023 48.2031 303.212 47.8019 302.749 46.9995C302.286 46.1971 302.054 45.072 302.054 43.6244ZM307.179 43.6244C307.179 42.9047 307.129 42.2966 307.03 41.8003C306.939 41.2957 306.744 40.8903 306.447 40.5843C306.157 40.2782 305.735 40.1251 305.181 40.1251C304.618 40.1251 304.188 40.2782 303.89 40.5843C303.601 40.8903 303.406 41.2957 303.307 41.8003C303.216 42.2966 303.171 42.9047 303.171 43.6244C303.171 44.3689 303.216 44.9934 303.307 45.4981C303.406 46.0027 303.601 46.408 303.89 46.7141C304.188 47.0202 304.618 47.1732 305.181 47.1732C305.735 47.1732 306.157 47.0202 306.447 46.7141C306.744 46.408 306.939 46.0027 307.03 45.4981C307.129 44.9934 307.179 44.3689 307.179 43.6244ZM309.846 43.6244C309.846 42.2015 310.077 41.093 310.541 40.2989C311.004 39.4964 311.814 39.0952 312.973 39.0952C314.122 39.0952 314.929 39.4964 315.392 40.2989C315.856 41.093 316.087 42.2015 316.087 43.6244C316.087 45.072 315.856 46.1971 315.392 46.9995C314.929 47.8019 314.122 48.2031 312.973 48.2031C311.814 48.2031 311.004 47.8019 310.541 46.9995C310.077 46.1971 309.846 45.072 309.846 43.6244ZM314.97 43.6244C314.97 42.9047 314.921 42.2966 314.821 41.8003C314.73 41.2957 314.536 40.8903 314.238 40.5843C313.949 40.2782 313.527 40.1251 312.973 40.1251C312.41 40.1251 311.98 40.2782 311.682 40.5843C311.393 40.8903 311.198 41.2957 311.099 41.8003C311.008 42.2966 310.962 42.9047 310.962 43.6244C310.962 44.3689 311.008 44.9934 311.099 45.4981C311.198 46.0027 311.393 46.408 311.682 46.7141C311.98 47.0202 312.41 47.1732 312.973 47.1732C313.527 47.1732 313.949 47.0202 314.238 46.7141C314.536 46.408 314.73 46.0027 314.821 45.4981C314.921 44.9934 314.97 44.3689 314.97 43.6244Z" fill="#1A1A1A"/>
<rect x="245.962" y="57.6328" width="70.9061" height="20.0906" rx="10.0453" fill="#0B9D09" fill-opacity="0.1"/>
<path d="M260.056 71.2417C259.649 71.2417 259.282 71.1708 258.957 71.029C258.638 70.8813 258.387 70.6804 258.204 70.4263C258.021 70.1663 257.926 69.8679 257.92 69.5311H258.78C258.81 69.8207 258.928 70.0659 259.135 70.2668C259.347 70.4618 259.654 70.5593 260.056 70.5593C260.44 70.5593 260.742 70.4647 260.96 70.2756C261.185 70.0806 261.297 69.8325 261.297 69.5311C261.297 69.2948 261.232 69.1027 261.102 68.955C260.972 68.8073 260.81 68.695 260.615 68.6182C260.42 68.5414 260.157 68.4587 259.826 68.37C259.418 68.2637 259.09 68.1573 258.842 68.051C258.6 67.9446 258.39 67.7791 258.213 67.5546C258.041 67.3242 257.956 67.0169 257.956 66.6328C257.956 66.296 258.041 65.9976 258.213 65.7376C258.384 65.4777 258.623 65.2767 258.931 65.1349C259.244 64.9931 259.601 64.9222 260.003 64.9222C260.582 64.9222 261.055 65.067 261.421 65.3565C261.793 65.6461 262.003 66.0301 262.051 66.5087H261.164C261.135 66.2724 261.011 66.0656 260.792 65.8883C260.573 65.7051 260.284 65.6136 259.923 65.6136C259.587 65.6136 259.312 65.7022 259.099 65.8795C258.886 66.0508 258.78 66.2931 258.78 66.6062C258.78 66.8308 258.842 67.014 258.966 67.1558C259.096 67.2976 259.253 67.4069 259.436 67.4837C259.625 67.5546 259.888 67.6373 260.225 67.7319C260.632 67.8441 260.96 67.9564 261.209 68.0687C261.457 68.175 261.669 68.3434 261.847 68.5739C262.024 68.7984 262.113 69.1057 262.113 69.4957C262.113 69.797 262.033 70.0806 261.873 70.3465C261.714 70.6124 261.477 70.8281 261.164 70.9936C260.851 71.159 260.482 71.2417 260.056 71.2417ZM267.607 66.3226V71.1797H266.8V70.4618C266.647 70.7099 266.431 70.9049 266.153 71.0467C265.882 71.1826 265.58 71.2506 265.249 71.2506C264.871 71.2506 264.531 71.1738 264.23 71.0201C263.929 70.8606 263.689 70.6243 263.512 70.3111C263.341 69.9979 263.255 69.6168 263.255 69.1677V66.3226H264.053V69.0614C264.053 69.54 264.174 69.9093 264.416 70.1693C264.659 70.4234 264.989 70.5504 265.409 70.5504C265.84 70.5504 266.18 70.4174 266.428 70.1515C266.676 69.8857 266.8 69.4986 266.8 68.9905V66.3226H267.607ZM268.668 68.7423C268.668 68.24 268.768 67.8028 268.969 67.4305C269.17 67.0524 269.447 66.7599 269.802 66.5531C270.162 66.3463 270.573 66.2428 271.034 66.2428C271.631 66.2428 272.121 66.3876 272.505 66.6771C272.895 66.9667 273.152 67.3685 273.276 67.8826H272.408C272.325 67.5871 272.163 67.3537 271.92 67.1824C271.684 67.011 271.389 66.9253 271.034 66.9253C270.573 66.9253 270.201 67.0849 269.917 67.4039C269.634 67.7171 269.492 68.1632 269.492 68.7423C269.492 69.3273 269.634 69.7793 269.917 70.0984C270.201 70.4174 270.573 70.577 271.034 70.577C271.389 70.577 271.684 70.4943 271.92 70.3288C272.157 70.1634 272.319 69.927 272.408 69.6198H273.276C273.146 70.1161 272.886 70.5149 272.496 70.8163C272.106 71.1117 271.619 71.2595 271.034 71.2595C270.573 71.2595 270.162 71.1561 269.802 70.9492C269.447 70.7424 269.17 70.4499 268.969 70.0718C268.768 69.6936 268.668 69.2504 268.668 68.7423ZM274.051 68.7423C274.051 68.24 274.152 67.8028 274.353 67.4305C274.554 67.0524 274.831 66.7599 275.186 66.5531C275.546 66.3463 275.957 66.2428 276.418 66.2428C277.015 66.2428 277.505 66.3876 277.889 66.6771C278.279 66.9667 278.536 67.3685 278.66 67.8826H277.792C277.709 67.5871 277.546 67.3537 277.304 67.1824C277.068 67.011 276.772 66.9253 276.418 66.9253C275.957 66.9253 275.585 67.0849 275.301 67.4039C275.017 67.7171 274.876 68.1632 274.876 68.7423C274.876 69.3273 275.017 69.7793 275.301 70.0984C275.585 70.4174 275.957 70.577 276.418 70.577C276.772 70.577 277.068 70.4943 277.304 70.3288C277.54 70.1634 277.703 69.927 277.792 69.6198H278.66C278.53 70.1161 278.27 70.5149 277.88 70.8163C277.49 71.1117 277.003 71.2595 276.418 71.2595C275.957 71.2595 275.546 71.1561 275.186 70.9492C274.831 70.7424 274.554 70.4499 274.353 70.0718C274.152 69.6936 274.051 69.2504 274.051 68.7423ZM284.168 68.565C284.168 68.7187 284.159 68.8811 284.141 69.0525H280.259C280.289 69.5311 280.451 69.9063 280.747 70.1781C281.048 70.444 281.412 70.577 281.837 70.577C282.186 70.577 282.475 70.4972 282.706 70.3377C282.942 70.1722 283.107 69.9536 283.202 69.6818H284.07C283.94 70.1486 283.681 70.5297 283.291 70.8252C282.901 71.1147 282.416 71.2595 281.837 71.2595C281.376 71.2595 280.962 71.1561 280.596 70.9492C280.236 70.7424 279.952 70.4499 279.745 70.0718C279.538 69.6877 279.435 69.2445 279.435 68.7423C279.435 68.24 279.535 67.7998 279.736 67.4217C279.937 67.0435 280.218 66.754 280.578 66.5531C280.945 66.3463 281.364 66.2428 281.837 66.2428C282.298 66.2428 282.706 66.3433 283.06 66.5442C283.415 66.7451 283.686 67.0228 283.875 67.3773C284.07 67.726 284.168 68.1219 284.168 68.565ZM283.335 68.3966C283.335 68.0894 283.267 67.8264 283.131 67.6078C282.995 67.3833 282.809 67.2149 282.573 67.1026C282.342 66.9844 282.085 66.9253 281.801 66.9253C281.394 66.9253 281.045 67.0553 280.756 67.3153C280.472 67.5753 280.31 67.9357 280.268 68.3966H283.335ZM286.952 71.2595C286.58 71.2595 286.246 71.1974 285.951 71.0733C285.655 70.9433 285.422 70.7661 285.25 70.5415C285.079 70.3111 284.984 70.0481 284.967 69.7527H285.8C285.824 69.995 285.936 70.1929 286.137 70.3465C286.343 70.5002 286.612 70.577 286.943 70.577C287.25 70.577 287.493 70.509 287.67 70.3731C287.847 70.2372 287.936 70.0659 287.936 69.8591C287.936 69.6463 287.841 69.4898 287.652 69.3893C287.463 69.2829 287.171 69.1795 286.775 69.0791C286.414 68.9846 286.119 68.89 285.889 68.7955C285.664 68.695 285.469 68.5503 285.304 68.3612C285.144 68.1662 285.064 67.9121 285.064 67.5989C285.064 67.3508 285.138 67.1233 285.286 66.9165C285.434 66.7096 285.643 66.5472 285.915 66.429C286.187 66.3049 286.497 66.2428 286.846 66.2428C287.383 66.2428 287.818 66.3787 288.149 66.6506C288.48 66.9224 288.657 67.2946 288.68 67.7673H287.874C287.856 67.5132 287.753 67.3094 287.564 67.1558C287.38 67.0021 287.132 66.9253 286.819 66.9253C286.53 66.9253 286.299 66.9874 286.128 67.1114C285.956 67.2355 285.871 67.398 285.871 67.5989C285.871 67.7585 285.921 67.8914 286.021 67.9978C286.128 68.0982 286.258 68.1809 286.411 68.2459C286.571 68.305 286.79 68.373 287.067 68.4498C287.416 68.5443 287.7 68.6389 287.918 68.7334C288.137 68.8221 288.323 68.958 288.477 69.1411C288.636 69.3243 288.719 69.5636 288.725 69.8591C288.725 70.125 288.651 70.3643 288.503 70.577C288.355 70.7897 288.146 70.9581 287.874 71.0822C287.608 71.2004 287.301 71.2595 286.952 71.2595ZM291.583 71.2595C291.211 71.2595 290.877 71.1974 290.581 71.0733C290.286 70.9433 290.052 70.7661 289.881 70.5415C289.71 70.3111 289.615 70.0481 289.597 69.7527H290.431C290.454 69.995 290.566 70.1929 290.767 70.3465C290.974 70.5002 291.243 70.577 291.574 70.577C291.881 70.577 292.123 70.509 292.301 70.3731C292.478 70.2372 292.567 70.0659 292.567 69.8591C292.567 69.6463 292.472 69.4898 292.283 69.3893C292.094 69.2829 291.801 69.1795 291.406 69.0791C291.045 68.9846 290.75 68.89 290.519 68.7955C290.295 68.695 290.1 68.5503 289.934 68.3612C289.775 68.1662 289.695 67.9121 289.695 67.5989C289.695 67.3508 289.769 67.1233 289.917 66.9165C290.064 66.7096 290.274 66.5472 290.546 66.429C290.818 66.3049 291.128 66.2428 291.476 66.2428C292.014 66.2428 292.448 66.3787 292.779 66.6506C293.11 66.9224 293.288 67.2946 293.311 67.7673H292.505C292.487 67.5132 292.383 67.3094 292.194 67.1558C292.011 67.0021 291.763 66.9253 291.45 66.9253C291.16 66.9253 290.93 66.9874 290.759 67.1114C290.587 67.2355 290.501 67.398 290.501 67.5989C290.501 67.7585 290.552 67.8914 290.652 67.9978C290.759 68.0982 290.889 68.1809 291.042 68.2459C291.202 68.305 291.42 68.373 291.698 68.4498C292.047 68.5443 292.33 68.6389 292.549 68.7334C292.768 68.8221 292.954 68.958 293.107 69.1411C293.267 69.3243 293.35 69.5636 293.355 69.8591C293.355 70.125 293.282 70.3643 293.134 70.577C292.986 70.7897 292.776 70.9581 292.505 71.0822C292.239 71.2004 291.931 71.2595 291.583 71.2595ZM296.471 66.9874H295.451V71.1797H294.645V66.9874H294.015V66.3226H294.645V65.9769C294.645 65.4333 294.784 65.0374 295.061 64.7893C295.345 64.5352 295.797 64.4081 296.417 64.4081V65.0818C296.063 65.0818 295.812 65.1527 295.664 65.2945C295.522 65.4304 295.451 65.6579 295.451 65.9769V66.3226H296.471V66.9874ZM301.719 66.3226V71.1797H300.912V70.4618C300.758 70.7099 300.543 70.9049 300.265 71.0467C299.993 71.1826 299.692 71.2506 299.361 71.2506C298.983 71.2506 298.643 71.1738 298.342 71.0201C298.04 70.8606 297.801 70.6243 297.624 70.3111C297.452 69.9979 297.367 69.6168 297.367 69.1677V66.3226H298.164V69.0614C298.164 69.54 298.285 69.9093 298.528 70.1693C298.77 70.4234 299.101 70.5504 299.52 70.5504C299.952 70.5504 300.292 70.4174 300.54 70.1515C300.788 69.8857 300.912 69.4986 300.912 68.9905V66.3226H301.719ZM303.887 64.6209V71.1797H303.08V64.6209H303.887Z" fill="#0B9D09"/>
<mask id="path-9-inside-2_624_20967" fill="white">
<path d="M25.3413 85H320.338V144.659H25.3413V85Z"/>
</mask>
<path d="M25.3413 85H320.338V144.659H25.3413V85Z" fill="white"/>
<path d="M320.338 144.659V143.772H25.3413V144.659V145.545H320.338V144.659Z" fill="#E3E8EF" fill-opacity="0.3" mask="url(#path-9-inside-2_624_20967)"/>
<path d="M34.9416 106.097H31.3307L30.7103 107.859H29.2337L32.3234 99.223H33.9613L37.0511 107.859H35.562L34.9416 106.097ZM34.5445 104.943L33.1424 100.935L31.7278 104.943H34.5445ZM39.1142 100.116C38.8577 100.116 38.6427 100.03 38.4689 99.8558C38.2952 99.6821 38.2084 99.467 38.2084 99.2106C38.2084 98.9542 38.2952 98.7391 38.4689 98.5654C38.6427 98.3916 38.8577 98.3048 39.1142 98.3048C39.3624 98.3048 39.5733 98.3916 39.747 98.5654C39.9207 98.7391 40.0076 98.9542 40.0076 99.2106C40.0076 99.467 39.9207 99.6821 39.747 99.8558C39.5733 100.03 39.3624 100.116 39.1142 100.116ZM39.8091 101.022V107.859H38.3945V101.022H39.8091ZM43.0809 102.015C43.2877 101.667 43.5607 101.399 43.8998 101.208C44.2473 101.01 44.6567 100.911 45.1283 100.911V102.375H44.7684C44.2142 102.375 43.7923 102.515 43.5027 102.797C43.2215 103.078 43.0809 103.566 43.0809 104.261V107.859H41.6663V101.022H43.0809V102.015ZM48.0789 102.176V105.961C48.0789 106.217 48.1368 106.403 48.2526 106.519C48.3767 106.627 48.5835 106.681 48.873 106.681H49.7416V107.859H48.6249C47.9879 107.859 47.4998 107.71 47.1607 107.413C46.8215 107.115 46.6519 106.631 46.6519 105.961V102.176H45.8453V101.022H46.6519V99.3223H48.0789V101.022H49.7416V102.176H48.0789ZM51.7651 100.116C51.5087 100.116 51.2936 100.03 51.1199 99.8558C50.9461 99.6821 50.8593 99.467 50.8593 99.2106C50.8593 98.9542 50.9461 98.7391 51.1199 98.5654C51.2936 98.3916 51.5087 98.3048 51.7651 98.3048C52.0133 98.3048 52.2242 98.3916 52.398 98.5654C52.5717 98.7391 52.6585 98.9542 52.6585 99.2106C52.6585 99.467 52.5717 99.6821 52.398 99.8558C52.2242 100.03 52.0133 100.116 51.7651 100.116ZM52.46 101.022V107.859H51.0454V101.022H52.46ZM62.5937 100.911C63.1314 100.911 63.6112 101.022 64.0331 101.246C64.4633 101.469 64.7983 101.8 65.0382 102.238C65.2864 102.677 65.4105 103.206 65.4105 103.827V107.859H64.0083V104.038C64.0083 103.425 63.8553 102.958 63.5492 102.635C63.2431 102.304 62.8254 102.139 62.2959 102.139C61.7665 102.139 61.3446 102.304 61.0303 102.635C60.7242 102.958 60.5711 103.425 60.5711 104.038V107.859H59.169V104.038C59.169 103.425 59.0159 102.958 58.7098 102.635C58.4038 102.304 57.986 102.139 57.4566 102.139C56.9271 102.139 56.5053 102.304 56.1909 102.635C55.8848 102.958 55.7318 103.425 55.7318 104.038V107.859H54.3172V101.022H55.7318V101.804C55.9634 101.523 56.2571 101.304 56.6128 101.146C56.9685 100.989 57.349 100.911 57.7544 100.911C58.3004 100.911 58.7884 101.026 59.2186 101.258C59.6488 101.49 59.9797 101.825 60.2113 102.263C60.4181 101.849 60.7407 101.523 61.1792 101.283C61.6176 101.035 62.0891 100.911 62.5937 100.911ZM73.4768 104.273C73.4768 104.53 73.4603 104.761 73.4272 104.968H68.2032C68.2445 105.514 68.4472 105.953 68.8112 106.283C69.1752 106.614 69.6219 106.78 70.1513 106.78C70.9124 106.78 71.4501 106.461 71.7644 105.824H73.2907C73.0839 106.453 72.7075 106.97 72.1615 107.375C71.6238 107.773 70.9538 107.971 70.1513 107.971C69.4978 107.971 68.9105 107.826 68.3893 107.537C67.8764 107.239 67.4711 106.825 67.1733 106.296C66.8837 105.758 66.739 105.138 66.739 104.435C66.739 103.731 66.8796 103.115 67.1609 102.586C67.4504 102.048 67.8516 101.634 68.3645 101.345C68.8857 101.055 69.4813 100.911 70.1513 100.911C70.7966 100.911 71.3715 101.051 71.8761 101.332C72.3807 101.614 72.7737 102.011 73.0549 102.524C73.3362 103.028 73.4768 103.612 73.4768 104.273ZM72.0002 103.827C71.9919 103.305 71.8058 102.888 71.4418 102.573C71.0778 102.259 70.627 102.102 70.0893 102.102C69.6012 102.102 69.1835 102.259 68.836 102.573C68.4886 102.879 68.2818 103.297 68.2156 103.827H72.0002ZM83.3411 102.772V103.963H78.2411V102.772H83.3411ZM92.2807 107.859L90.579 104.903H89.6536V107.859H88.4411V100.467H90.9938C91.561 100.467 92.0396 100.567 92.4296 100.765C92.8267 100.964 93.1209 101.23 93.3124 101.563C93.5109 101.896 93.6102 102.268 93.6102 102.68C93.6102 103.162 93.4684 103.601 93.1848 103.999C92.9082 104.389 92.4792 104.654 91.8978 104.796L93.7272 107.859H92.2807ZM89.6536 103.935H90.9938C91.4476 103.935 91.7879 103.821 92.0148 103.594C92.2488 103.367 92.3658 103.063 92.3658 102.68C92.3658 102.297 92.2523 101.999 92.0254 101.786C91.7985 101.566 91.4547 101.457 90.9938 101.457H89.6536V103.935ZM94.7571 104.903C94.7571 104.314 94.8777 103.793 95.1188 103.339C95.3669 102.885 95.7002 102.534 96.1185 102.286C96.544 102.031 97.012 101.903 97.5225 101.903C97.9834 101.903 98.384 101.995 98.7243 102.18C99.0718 102.357 99.3483 102.58 99.5539 102.85V101.999H100.777V107.859H99.5539V106.987C99.3483 107.264 99.0682 107.494 98.7137 107.679C98.3592 107.863 97.955 107.955 97.5012 107.955C96.9978 107.955 96.5369 107.827 96.1185 107.572C95.7002 107.31 95.3669 106.948 95.1188 106.487C94.8777 106.019 94.7571 105.491 94.7571 104.903ZM99.5539 104.924C99.5539 104.52 99.4689 104.169 99.2987 103.871C99.1356 103.573 98.9193 103.346 98.6499 103.19C98.3804 103.034 98.0897 102.956 97.7777 102.956C97.4658 102.956 97.175 103.034 96.9056 103.19C96.6362 103.339 96.4163 103.562 96.2462 103.86C96.0831 104.151 96.0015 104.498 96.0015 104.903C96.0015 105.307 96.0831 105.661 96.2462 105.966C96.4163 106.271 96.6362 106.505 96.9056 106.668C97.1821 106.824 97.4728 106.902 97.7777 106.902C98.0897 106.902 98.3804 106.824 98.6499 106.668C98.9193 106.512 99.1356 106.285 99.2987 105.987C99.4689 105.683 99.5539 105.328 99.5539 104.924ZM101.965 104.924C101.965 104.321 102.086 103.793 102.327 103.339C102.575 102.878 102.916 102.524 103.348 102.276C103.781 102.027 104.277 101.903 104.837 101.903C105.546 101.903 106.131 102.073 106.592 102.414C107.06 102.747 107.376 103.226 107.539 103.85H106.23C106.124 103.559 105.954 103.332 105.72 103.169C105.486 103.006 105.192 102.924 104.837 102.924C104.341 102.924 103.944 103.102 103.646 103.456C103.355 103.804 103.21 104.293 103.21 104.924C103.21 105.555 103.355 106.048 103.646 106.402C103.944 106.757 104.341 106.934 104.837 106.934C105.539 106.934 106.004 106.626 106.23 106.009H107.539C107.369 106.604 107.049 107.079 106.581 107.434C106.113 107.781 105.532 107.955 104.837 107.955C104.277 107.955 103.781 107.831 103.348 107.583C102.916 107.328 102.575 106.973 102.327 106.519C102.086 106.058 101.965 105.527 101.965 104.924ZM111.778 101.903C112.225 101.903 112.622 101.999 112.969 102.19C113.324 102.382 113.601 102.665 113.799 103.041C114.005 103.417 114.108 103.871 114.108 104.403V107.859H112.906V104.584C112.906 104.059 112.774 103.658 112.512 103.382C112.25 103.098 111.892 102.956 111.438 102.956C110.984 102.956 110.622 103.098 110.353 103.382C110.091 103.658 109.96 104.059 109.96 104.584V107.859H108.747V99.9888H109.96V102.68C110.165 102.432 110.424 102.24 110.736 102.105C111.055 101.971 111.402 101.903 111.778 101.903ZM121.025 104.786C121.025 105.005 121.011 105.204 120.983 105.381H116.505C116.54 105.849 116.714 106.225 117.026 106.509C117.338 106.792 117.721 106.934 118.175 106.934C118.827 106.934 119.288 106.661 119.558 106.115H120.866C120.688 106.654 120.366 107.097 119.898 107.445C119.437 107.785 118.863 107.955 118.175 107.955C117.615 107.955 117.111 107.831 116.665 107.583C116.225 107.328 115.878 106.973 115.622 106.519C115.374 106.058 115.25 105.527 115.25 104.924C115.25 104.321 115.371 103.793 115.612 103.339C115.86 102.878 116.204 102.524 116.643 102.276C117.09 102.027 117.601 101.903 118.175 101.903C118.728 101.903 119.221 102.024 119.653 102.265C120.086 102.506 120.423 102.846 120.664 103.286C120.905 103.718 121.025 104.218 121.025 104.786ZM119.76 104.403C119.753 103.956 119.593 103.598 119.281 103.328C118.969 103.059 118.583 102.924 118.122 102.924C117.703 102.924 117.345 103.059 117.047 103.328C116.75 103.591 116.572 103.949 116.516 104.403H119.76ZM123.431 99.9888V107.859H122.219V99.9888H123.431ZM135.571 100.467V107.859H134.359V102.797L132.104 107.859H131.264L128.998 102.797V107.859H127.786V100.467H129.094L131.689 106.264L134.274 100.467H135.571ZM142.472 101.999V107.859H141.26V107.168C141.068 107.409 140.817 107.601 140.505 107.742C140.2 107.877 139.873 107.944 139.526 107.944C139.065 107.944 138.65 107.849 138.282 107.657C137.92 107.466 137.633 107.182 137.42 106.806C137.215 106.431 137.112 105.977 137.112 105.445V101.999H138.314V105.264C138.314 105.789 138.445 106.193 138.707 106.477C138.969 106.753 139.328 106.892 139.781 106.892C140.235 106.892 140.593 106.753 140.856 106.477C141.125 106.193 141.26 105.789 141.26 105.264V101.999H142.472ZM145.284 102.85C145.462 102.552 145.696 102.322 145.986 102.159C146.284 101.988 146.635 101.903 147.039 101.903V103.158H146.731C146.256 103.158 145.894 103.279 145.646 103.52C145.405 103.761 145.284 104.179 145.284 104.775V107.859H144.072V101.999H145.284V102.85ZM147.75 104.903C147.75 104.314 147.87 103.793 148.111 103.339C148.36 102.885 148.693 102.534 149.111 102.286C149.537 102.031 150.005 101.903 150.515 101.903C150.976 101.903 151.377 101.995 151.717 102.18C152.064 102.357 152.341 102.58 152.547 102.85V101.999H153.77V107.859H152.547V106.987C152.341 107.264 152.061 107.494 151.706 107.679C151.352 107.863 150.948 107.955 150.494 107.955C149.99 107.955 149.53 107.827 149.111 107.572C148.693 107.31 148.36 106.948 148.111 106.487C147.87 106.019 147.75 105.491 147.75 104.903ZM152.547 104.924C152.547 104.52 152.461 104.169 152.291 103.871C152.128 103.573 151.912 103.346 151.643 103.19C151.373 103.034 151.082 102.956 150.77 102.956C150.458 102.956 150.168 103.034 149.898 103.19C149.629 103.339 149.409 103.562 149.239 103.86C149.076 104.151 148.994 104.498 148.994 104.903C148.994 105.307 149.076 105.661 149.239 105.966C149.409 106.271 149.629 106.505 149.898 106.668C150.175 106.824 150.465 106.902 150.77 106.902C151.082 106.902 151.373 106.824 151.643 106.668C151.912 106.512 152.128 106.285 152.291 105.987C152.461 105.683 152.547 105.328 152.547 104.924ZM156.575 102.871C156.78 102.588 157.06 102.357 157.415 102.18C157.777 101.995 158.177 101.903 158.617 101.903C159.134 101.903 159.602 102.027 160.021 102.276C160.439 102.524 160.769 102.878 161.01 103.339C161.251 103.793 161.372 104.314 161.372 104.903C161.372 105.491 161.251 106.019 161.01 106.487C160.769 106.948 160.436 107.31 160.01 107.572C159.592 107.827 159.127 107.955 158.617 107.955C158.163 107.955 157.759 107.866 157.404 107.689C157.057 107.512 156.78 107.285 156.575 107.009V107.859H155.362V99.9888H156.575V102.871ZM160.138 104.903C160.138 104.498 160.053 104.151 159.883 103.86C159.719 103.562 159.5 103.339 159.223 103.19C158.954 103.034 158.663 102.956 158.351 102.956C158.046 102.956 157.755 103.034 157.479 103.19C157.209 103.346 156.99 103.573 156.819 103.871C156.656 104.169 156.575 104.52 156.575 104.924C156.575 105.328 156.656 105.683 156.819 105.987C156.99 106.285 157.209 106.512 157.479 106.668C157.755 106.824 158.046 106.902 158.351 106.902C158.663 106.902 158.954 106.824 159.223 106.668C159.5 106.505 159.719 106.271 159.883 105.966C160.053 105.661 160.138 105.307 160.138 104.903ZM167.878 101.999V107.859H166.665V107.168C166.474 107.409 166.222 107.601 165.91 107.742C165.605 107.877 165.279 107.944 164.932 107.944C164.471 107.944 164.056 107.849 163.687 107.657C163.326 107.466 163.039 107.182 162.826 106.806C162.62 106.431 162.517 105.977 162.517 105.445V101.999H163.719V105.264C163.719 105.789 163.85 106.193 164.113 106.477C164.375 106.753 164.733 106.892 165.187 106.892C165.641 106.892 165.999 106.753 166.261 106.477C166.531 106.193 166.665 105.789 166.665 105.264V101.999H167.878ZM170.69 99.9888V107.859H169.478V99.9888H170.69ZM171.878 104.903C171.878 104.314 171.999 103.793 172.24 103.339C172.488 102.885 172.821 102.534 173.239 102.286C173.665 102.031 174.133 101.903 174.643 101.903C175.104 101.903 175.505 101.995 175.845 102.18C176.193 102.357 176.469 102.58 176.675 102.85V101.999H177.898V107.859H176.675V106.987C176.469 107.264 176.189 107.494 175.835 107.679C175.48 107.863 175.076 107.955 174.622 107.955C174.119 107.955 173.658 107.827 173.239 107.572C172.821 107.31 172.488 106.948 172.24 106.487C171.999 106.019 171.878 105.491 171.878 104.903ZM176.675 104.924C176.675 104.52 176.59 104.169 176.42 103.871C176.256 103.573 176.04 103.346 175.771 103.19C175.501 103.034 175.211 102.956 174.899 102.956C174.587 102.956 174.296 103.034 174.026 103.19C173.757 103.339 173.537 103.562 173.367 103.86C173.204 104.151 173.122 104.498 173.122 104.903C173.122 105.307 173.204 105.661 173.367 105.966C173.537 106.271 173.757 106.505 174.026 106.668C174.303 106.824 174.594 106.902 174.899 106.902C175.211 106.902 175.501 106.824 175.771 106.668C176.04 106.512 176.256 106.285 176.42 105.987C176.59 105.683 176.675 105.328 176.675 104.924Z" fill="#1A1A1A"/>
<path d="M32.9864 125.541V126.197H30.3008V128.28H32.4812V128.936H30.3008V131.719H29.4942V125.541H32.9864ZM38.3921 129.104C38.3921 129.258 38.3833 129.42 38.3655 129.592H34.4834C34.513 130.07 34.6755 130.445 34.9709 130.717C35.2723 130.983 35.6357 131.116 36.0611 131.116C36.4097 131.116 36.6992 131.036 36.9297 130.877C37.166 130.711 37.3315 130.493 37.426 130.221H38.2946C38.1646 130.688 37.9047 131.069 37.5147 131.364C37.1247 131.654 36.6402 131.799 36.0611 131.799C35.6002 131.799 35.1866 131.695 34.8202 131.488C34.4598 131.281 34.1762 130.989 33.9694 130.611C33.7626 130.227 33.6591 129.784 33.6591 129.281C33.6591 128.779 33.7596 128.339 33.9605 127.961C34.1614 127.583 34.4421 127.293 34.8025 127.092C35.1689 126.885 35.5884 126.782 36.0611 126.782C36.522 126.782 36.9297 126.882 37.2842 127.083C37.6388 127.284 37.9106 127.562 38.0996 127.916C38.2946 128.265 38.3921 128.661 38.3921 129.104ZM37.559 128.936C37.559 128.628 37.491 128.365 37.3551 128.147C37.2192 127.922 37.0331 127.754 36.7967 127.642C36.5663 127.523 36.3093 127.464 36.0256 127.464C35.6179 127.464 35.2693 127.594 34.9798 127.854C34.6961 128.114 34.5337 128.475 34.4923 128.936H37.559ZM40.2633 127.766C40.4288 127.476 40.671 127.24 40.9901 127.057C41.3092 126.873 41.6726 126.782 42.0803 126.782C42.5175 126.782 42.9105 126.885 43.2591 127.092C43.6077 127.299 43.8825 127.591 44.0834 127.97C44.2843 128.342 44.3847 128.776 44.3847 129.272C44.3847 129.763 44.2843 130.2 44.0834 130.584C43.8825 130.968 43.6048 131.267 43.2502 131.479C42.9016 131.692 42.5116 131.799 42.0803 131.799C41.6608 131.799 41.2915 131.707 40.9724 131.524C40.6592 131.341 40.4229 131.107 40.2633 130.824V131.719H39.4568V125.16H40.2633V127.766ZM43.5605 129.272C43.5605 128.906 43.4866 128.587 43.3389 128.315C43.1912 128.043 42.9903 127.837 42.7362 127.695C42.488 127.553 42.2132 127.482 41.9119 127.482C41.6164 127.482 41.3417 127.556 41.0876 127.704C40.8394 127.846 40.6385 128.055 40.4849 128.333C40.3372 128.605 40.2633 128.921 40.2633 129.281C40.2633 129.648 40.3372 129.97 40.4849 130.247C40.6385 130.519 40.8394 130.729 41.0876 130.877C41.3417 131.019 41.6164 131.089 41.9119 131.089C42.2132 131.089 42.488 131.019 42.7362 130.877C42.9903 130.729 43.1912 130.519 43.3389 130.247C43.4866 129.97 43.5605 129.645 43.5605 129.272ZM47.4637 126.046V125.311H49.13V131.719H48.3146V126.046H47.4637ZM50.3204 130.292V129.68L53.4314 125.373H54.3975V129.592H55.2839V130.292H54.3975V131.719H53.5998V130.292H50.3204ZM53.6353 126.215L51.2511 129.592H53.6353V126.215ZM57.0557 130.602L56.063 132.986H55.5223L56.1694 130.602H57.0557ZM60.1121 131.072C60.8626 130.469 61.4505 129.976 61.8759 129.592C62.3014 129.202 62.6588 128.797 62.9484 128.377C63.2438 127.952 63.3915 127.535 63.3915 127.128C63.3915 126.744 63.297 126.442 63.1079 126.224C62.9247 125.999 62.6263 125.887 62.2127 125.887C61.8109 125.887 61.4978 126.014 61.2732 126.268C61.0546 126.516 60.9364 126.85 60.9187 127.269H60.1387C60.1624 126.608 60.3633 126.096 60.7414 125.736C61.1196 125.376 61.6071 125.195 62.2039 125.195C62.8125 125.195 63.294 125.364 63.6486 125.701C64.009 126.037 64.1892 126.501 64.1892 127.092C64.1892 127.583 64.0415 128.061 63.7461 128.528C63.4565 128.989 63.1256 129.397 62.7534 129.751C62.3811 130.1 61.9055 130.507 61.3264 130.974H64.3754V131.648H60.1121V131.072ZM65.3077 128.448C65.3077 127.432 65.4732 126.64 65.8041 126.073C66.135 125.5 66.714 125.213 67.5413 125.213C68.3626 125.213 68.9387 125.5 69.2696 126.073C69.6005 126.64 69.766 127.432 69.766 128.448C69.766 129.482 69.6005 130.286 69.2696 130.859C68.9387 131.432 68.3626 131.719 67.5413 131.719C66.714 131.719 66.135 131.432 65.8041 130.859C65.4732 130.286 65.3077 129.482 65.3077 128.448ZM68.9683 128.448C68.9683 127.934 68.9328 127.5 68.8619 127.145C68.7969 126.785 68.6581 126.495 68.4453 126.277C68.2385 126.058 67.9372 125.949 67.5413 125.949C67.1395 125.949 66.8322 126.058 66.6195 126.277C66.4127 126.495 66.2738 126.785 66.2029 127.145C66.1379 127.5 66.1054 127.934 66.1054 128.448C66.1054 128.98 66.1379 129.426 66.2029 129.787C66.2738 130.147 66.4127 130.437 66.6195 130.655C66.8322 130.874 67.1395 130.983 67.5413 130.983C67.9372 130.983 68.2385 130.874 68.4453 130.655C68.6581 130.437 68.7969 130.147 68.8619 129.787C68.9328 129.426 68.9683 128.98 68.9683 128.448ZM70.7757 131.072C71.5262 130.469 72.1141 129.976 72.5395 129.592C72.965 129.202 73.3225 128.797 73.612 128.377C73.9074 127.952 74.0552 127.535 74.0552 127.128C74.0552 126.744 73.9606 126.442 73.7715 126.224C73.5884 125.999 73.29 125.887 72.8763 125.887C72.4745 125.887 72.1614 126.014 71.9368 126.268C71.7182 126.516 71.6 126.85 71.5823 127.269H70.8023C70.826 126.608 71.0269 126.096 71.405 125.736C71.7832 125.376 72.2707 125.195 72.8675 125.195C73.4761 125.195 73.9577 125.364 74.3122 125.701C74.6726 126.037 74.8529 126.501 74.8529 127.092C74.8529 127.583 74.7051 128.061 74.4097 128.528C74.1202 128.989 73.7893 129.397 73.417 129.751C73.0447 130.1 72.5691 130.507 71.99 130.974H75.039V131.648H70.7757V131.072ZM80.0573 126.011H76.9463V128.032C77.0822 127.843 77.2831 127.689 77.549 127.571C77.8149 127.447 78.1015 127.385 78.4088 127.385C78.8992 127.385 79.298 127.488 79.6053 127.695C79.9126 127.896 80.1312 128.159 80.2612 128.484C80.3971 128.803 80.465 129.142 80.465 129.503C80.465 129.928 80.3853 130.309 80.2257 130.646C80.0662 130.983 79.821 131.249 79.4901 131.444C79.1651 131.639 78.7603 131.736 78.2758 131.736C77.6554 131.736 77.1531 131.577 76.7691 131.258C76.385 130.939 76.1516 130.513 76.0689 129.982H76.8577C76.9345 130.318 77.097 130.581 77.3452 130.77C77.5933 130.959 77.9065 131.054 78.2847 131.054C78.7515 131.054 79.103 130.915 79.3394 130.637C79.5758 130.354 79.6939 129.982 79.6939 129.521C79.6939 129.06 79.5758 128.705 79.3394 128.457C79.103 128.203 78.7544 128.076 78.2935 128.076C77.9804 128.076 77.7056 128.153 77.4692 128.306C77.2388 128.454 77.0704 128.658 76.964 128.918H76.2018V125.302H80.0573V126.011ZM82.503 130.602L81.5103 132.986H80.9696L81.6166 130.602H82.503ZM85.4442 126.046V125.311H87.1105V131.719H86.2951V126.046H85.4442ZM88.4959 128.448C88.4959 127.432 88.6614 126.64 88.9923 126.073C89.3232 125.5 89.9022 125.213 90.7295 125.213C91.5508 125.213 92.1269 125.5 92.4578 126.073C92.7887 126.64 92.9541 127.432 92.9541 128.448C92.9541 129.482 92.7887 130.286 92.4578 130.859C92.1269 131.432 91.5508 131.719 90.7295 131.719C89.9022 131.719 89.3232 131.432 88.9923 130.859C88.6614 130.286 88.4959 129.482 88.4959 128.448ZM92.1564 128.448C92.1564 127.934 92.121 127.5 92.0501 127.145C91.9851 126.785 91.8462 126.495 91.6335 126.277C91.4267 126.058 91.1254 125.949 90.7295 125.949C90.3277 125.949 90.0204 126.058 89.8077 126.277C89.6009 126.495 89.462 126.785 89.3911 127.145C89.3261 127.5 89.2936 127.934 89.2936 128.448C89.2936 128.98 89.3261 129.426 89.3911 129.787C89.462 130.147 89.6009 130.437 89.8077 130.655C90.0204 130.874 90.3277 130.983 90.7295 130.983C91.1254 130.983 91.4267 130.874 91.6335 130.655C91.8462 130.437 91.9851 130.147 92.0501 129.787C92.121 129.426 92.1564 128.98 92.1564 128.448ZM94.4514 131.772C94.2978 131.772 94.1678 131.719 94.0614 131.612C93.9551 131.506 93.9019 131.376 93.9019 131.222C93.9019 131.069 93.9551 130.939 94.0614 130.832C94.1678 130.726 94.2978 130.673 94.4514 130.673C94.5991 130.673 94.7232 130.726 94.8237 130.832C94.93 130.939 94.9832 131.069 94.9832 131.222C94.9832 131.376 94.93 131.506 94.8237 131.612C94.7232 131.719 94.5991 131.772 94.4514 131.772ZM94.4514 127.978C94.2978 127.978 94.1678 127.925 94.0614 127.819C93.9551 127.713 93.9019 127.583 93.9019 127.429C93.9019 127.275 93.9551 127.145 94.0614 127.039C94.1678 126.933 94.2978 126.879 94.4514 126.879C94.5991 126.879 94.7232 126.933 94.8237 127.039C94.93 127.145 94.9832 127.275 94.9832 127.429C94.9832 127.583 94.93 127.713 94.8237 127.819C94.7232 127.925 94.5991 127.978 94.4514 127.978ZM95.7533 130.292V129.68L98.8644 125.373H99.8304V129.592H100.717V130.292H99.8304V131.719H99.0328V130.292H95.7533ZM99.0682 126.215L96.684 129.592H99.0682V126.215ZM102.692 128.386C102.362 128.256 102.107 128.067 101.93 127.819C101.753 127.571 101.664 127.269 101.664 126.915C101.664 126.596 101.744 126.309 101.904 126.055C102.063 125.795 102.3 125.591 102.613 125.444C102.932 125.29 103.316 125.213 103.765 125.213C104.214 125.213 104.595 125.29 104.908 125.444C105.227 125.591 105.467 125.795 105.626 126.055C105.792 126.309 105.874 126.596 105.874 126.915C105.874 127.258 105.783 127.559 105.6 127.819C105.416 128.073 105.165 128.262 104.846 128.386C105.213 128.498 105.502 128.696 105.715 128.98C105.933 129.258 106.043 129.595 106.043 129.99C106.043 130.374 105.948 130.711 105.759 131.001C105.57 131.284 105.301 131.506 104.953 131.666C104.61 131.819 104.214 131.896 103.765 131.896C103.316 131.896 102.92 131.819 102.577 131.666C102.24 131.506 101.977 131.284 101.788 131.001C101.599 130.711 101.505 130.374 101.505 129.99C101.505 129.595 101.611 129.255 101.824 128.971C102.037 128.688 102.326 128.493 102.692 128.386ZM105.094 127.012C105.094 126.652 104.976 126.374 104.74 126.179C104.504 125.984 104.179 125.887 103.765 125.887C103.357 125.887 103.035 125.984 102.799 126.179C102.562 126.374 102.444 126.655 102.444 127.021C102.444 127.352 102.565 127.618 102.808 127.819C103.056 128.02 103.375 128.12 103.765 128.12C104.161 128.12 104.48 128.02 104.722 127.819C104.97 127.612 105.094 127.343 105.094 127.012ZM103.765 128.741C103.328 128.741 102.97 128.844 102.692 129.051C102.415 129.252 102.276 129.556 102.276 129.964C102.276 130.342 102.409 130.646 102.675 130.877C102.947 131.107 103.31 131.222 103.765 131.222C104.22 131.222 104.58 131.107 104.846 130.877C105.112 130.646 105.245 130.342 105.245 129.964C105.245 129.568 105.109 129.267 104.837 129.06C104.566 128.847 104.208 128.741 103.765 128.741ZM107.504 131.772C107.35 131.772 107.22 131.719 107.114 131.612C107.008 131.506 106.954 131.376 106.954 131.222C106.954 131.069 107.008 130.939 107.114 130.832C107.22 130.726 107.35 130.673 107.504 130.673C107.652 130.673 107.776 130.726 107.876 130.832C107.983 130.939 108.036 131.069 108.036 131.222C108.036 131.376 107.983 131.506 107.876 131.612C107.776 131.719 107.652 131.772 107.504 131.772ZM107.504 127.978C107.35 127.978 107.22 127.925 107.114 127.819C107.008 127.713 106.954 127.583 106.954 127.429C106.954 127.275 107.008 127.145 107.114 127.039C107.22 126.933 107.35 126.879 107.504 126.879C107.652 126.879 107.776 126.933 107.876 127.039C107.983 127.145 108.036 127.275 108.036 127.429C108.036 127.583 107.983 127.713 107.876 127.819C107.776 127.925 107.652 127.978 107.504 127.978ZM109.001 128.448C109.001 127.432 109.166 126.64 109.497 126.073C109.828 125.5 110.407 125.213 111.234 125.213C112.056 125.213 112.632 125.5 112.963 126.073C113.294 126.64 113.459 127.432 113.459 128.448C113.459 129.482 113.294 130.286 112.963 130.859C112.632 131.432 112.056 131.719 111.234 131.719C110.407 131.719 109.828 131.432 109.497 130.859C109.166 130.286 109.001 129.482 109.001 128.448ZM112.661 128.448C112.661 127.934 112.626 127.5 112.555 127.145C112.49 126.785 112.351 126.495 112.138 126.277C111.932 126.058 111.63 125.949 111.234 125.949C110.833 125.949 110.525 126.058 110.313 126.277C110.106 126.495 109.967 126.785 109.896 127.145C109.831 127.5 109.799 127.934 109.799 128.448C109.799 128.98 109.831 129.426 109.896 129.787C109.967 130.147 110.106 130.437 110.313 130.655C110.525 130.874 110.833 130.983 111.234 130.983C111.63 130.983 111.932 130.874 112.138 130.655C112.351 130.437 112.49 130.147 112.555 129.787C112.626 129.426 112.661 128.98 112.661 128.448ZM114.566 128.448C114.566 127.432 114.732 126.64 115.063 126.073C115.394 125.5 115.973 125.213 116.8 125.213C117.621 125.213 118.197 125.5 118.528 126.073C118.859 126.64 119.025 127.432 119.025 128.448C119.025 129.482 118.859 130.286 118.528 130.859C118.197 131.432 117.621 131.719 116.8 131.719C115.973 131.719 115.394 131.432 115.063 130.859C114.732 130.286 114.566 129.482 114.566 128.448ZM118.227 128.448C118.227 127.934 118.191 127.5 118.121 127.145C118.056 126.785 117.917 126.495 117.704 126.277C117.497 126.058 117.196 125.949 116.8 125.949C116.398 125.949 116.091 126.058 115.878 126.277C115.671 126.495 115.532 126.785 115.462 127.145C115.397 127.5 115.364 127.934 115.364 128.448C115.364 128.98 115.397 129.426 115.462 129.787C115.532 130.147 115.671 130.437 115.878 130.655C116.091 130.874 116.398 130.983 116.8 130.983C117.196 130.983 117.497 130.874 117.704 130.655C117.917 130.437 118.056 130.147 118.121 129.787C118.191 129.426 118.227 128.98 118.227 128.448ZM126.279 130.345H123.585L123.089 131.719H122.238L124.471 125.577H125.402L127.627 131.719H126.776L126.279 130.345ZM126.049 129.689L124.932 126.569L123.815 129.689H126.049ZM134.866 125.585V131.719H134.06V127.145L132.021 131.719H131.454L129.407 127.136V131.719H128.6V125.585H129.469L131.738 130.655L134.007 125.585H134.866Z" fill="#626C7A"/>
<path d="M258.49 101.146C258.548 100.385 258.842 99.7897 259.371 99.3595C259.9 98.9293 260.587 98.7143 261.431 98.7143C261.993 98.7143 262.477 98.8177 262.883 99.0245C263.296 99.223 263.607 99.496 263.813 99.8434C264.028 100.191 264.136 100.584 264.136 101.022C264.136 101.535 263.987 101.978 263.689 102.35C263.4 102.722 263.019 102.962 262.548 103.07V103.132C263.085 103.264 263.511 103.525 263.826 103.913C264.14 104.302 264.297 104.811 264.297 105.44C264.297 105.911 264.19 106.337 263.975 106.718C263.76 107.09 263.437 107.384 263.007 107.599C262.577 107.814 262.06 107.921 261.456 107.921C260.579 107.921 259.859 107.694 259.297 107.239C258.734 106.776 258.42 106.122 258.354 105.278H259.446C259.503 105.775 259.706 106.18 260.054 106.494C260.401 106.809 260.864 106.966 261.443 106.966C262.022 106.966 262.461 106.817 262.759 106.519C263.065 106.213 263.218 105.82 263.218 105.34C263.218 104.72 263.011 104.273 262.597 104C262.184 103.727 261.559 103.591 260.724 103.591H260.438V102.648H260.736C261.497 102.639 262.072 102.515 262.461 102.276C262.85 102.027 263.044 101.647 263.044 101.134C263.044 100.695 262.899 100.344 262.61 100.079C262.328 99.8145 261.923 99.6821 261.394 99.6821C260.881 99.6821 260.467 99.8145 260.153 100.079C259.838 100.344 259.652 100.7 259.594 101.146H258.49ZM265.822 103.281C265.822 101.858 266.053 100.749 266.517 99.9551C266.98 99.1527 267.791 98.7515 268.949 98.7515C270.099 98.7515 270.905 99.1527 271.368 99.9551C271.832 100.749 272.063 101.858 272.063 103.281C272.063 104.728 271.832 105.853 271.368 106.656C270.905 107.458 270.099 107.859 268.949 107.859C267.791 107.859 266.98 107.458 266.517 106.656C266.053 105.853 265.822 104.728 265.822 103.281ZM270.947 103.281C270.947 102.561 270.897 101.953 270.798 101.457C270.707 100.952 270.512 100.547 270.215 100.241C269.925 99.9344 269.503 99.7814 268.949 99.7814C268.386 99.7814 267.956 99.9344 267.658 100.241C267.369 100.547 267.174 100.952 267.075 101.457C266.984 101.953 266.939 102.561 266.939 103.281C266.939 104.025 266.984 104.65 267.075 105.154C267.174 105.659 267.369 106.064 267.658 106.37C267.956 106.676 268.386 106.829 268.949 106.829C269.503 106.829 269.925 106.676 270.215 106.37C270.512 106.064 270.707 105.659 270.798 105.154C270.897 104.65 270.947 104.025 270.947 103.281ZM274.966 106.296L273.576 109.634H272.819L273.725 106.296H274.966ZM276.073 103.281C276.073 101.858 276.305 100.749 276.768 99.9551C277.232 99.1527 278.042 98.7515 279.2 98.7515C280.35 98.7515 281.157 99.1527 281.62 99.9551C282.083 100.749 282.315 101.858 282.315 103.281C282.315 104.728 282.083 105.853 281.62 106.656C281.157 107.458 280.35 107.859 279.2 107.859C278.042 107.859 277.232 107.458 276.768 106.656C276.305 105.853 276.073 104.728 276.073 103.281ZM281.198 103.281C281.198 102.561 281.149 101.953 281.049 101.457C280.958 100.952 280.764 100.547 280.466 100.241C280.177 99.9344 279.755 99.7814 279.2 99.7814C278.638 99.7814 278.208 99.9344 277.91 100.241C277.62 100.547 277.426 100.952 277.327 101.457C277.236 101.953 277.19 102.561 277.19 103.281C277.19 104.025 277.236 104.65 277.327 105.154C277.426 105.659 277.62 106.064 277.91 106.37C278.208 106.676 278.638 106.829 279.2 106.829C279.755 106.829 280.177 106.676 280.466 106.37C280.764 106.064 280.958 105.659 281.049 105.154C281.149 104.65 281.198 104.025 281.198 103.281ZM283.865 103.281C283.865 101.858 284.097 100.749 284.56 99.9551C285.023 99.1527 285.834 98.7515 286.992 98.7515C288.142 98.7515 288.949 99.1527 289.412 99.9551C289.875 100.749 290.107 101.858 290.107 103.281C290.107 104.728 289.875 105.853 289.412 106.656C288.949 107.458 288.142 107.859 286.992 107.859C285.834 107.859 285.023 107.458 284.56 106.656C284.097 105.853 283.865 104.728 283.865 103.281ZM288.99 103.281C288.99 102.561 288.94 101.953 288.841 101.457C288.75 100.952 288.556 100.547 288.258 100.241C287.968 99.9344 287.546 99.7814 286.992 99.7814C286.43 99.7814 285.999 99.9344 285.702 100.241C285.412 100.547 285.218 100.952 285.118 101.457C285.027 101.953 284.982 102.561 284.982 103.281C284.982 104.025 285.027 104.65 285.118 105.154C285.218 105.659 285.412 106.064 285.702 106.37C285.999 106.676 286.43 106.829 286.992 106.829C287.546 106.829 287.968 106.676 288.258 106.37C288.556 106.064 288.75 105.659 288.841 105.154C288.94 104.65 288.99 104.025 288.99 103.281ZM291.657 103.281C291.657 101.858 291.889 100.749 292.352 99.9551C292.815 99.1527 293.626 98.7515 294.784 98.7515C295.934 98.7515 296.74 99.1527 297.204 99.9551C297.667 100.749 297.898 101.858 297.898 103.281C297.898 104.728 297.667 105.853 297.204 106.656C296.74 107.458 295.934 107.859 294.784 107.859C293.626 107.859 292.815 107.458 292.352 106.656C291.889 105.853 291.657 104.728 291.657 103.281ZM296.782 103.281C296.782 102.561 296.732 101.953 296.633 101.457C296.542 100.952 296.347 100.547 296.05 100.241C295.76 99.9344 295.338 99.7814 294.784 99.7814C294.221 99.7814 293.791 99.9344 293.493 100.241C293.204 100.547 293.009 100.952 292.91 101.457C292.819 101.953 292.774 102.561 292.774 103.281C292.774 104.025 292.819 104.65 292.91 105.154C293.009 105.659 293.204 106.064 293.493 106.37C293.791 106.676 294.221 106.829 294.784 106.829C295.338 106.829 295.76 106.676 296.05 106.37C296.347 106.064 296.542 105.659 296.633 105.154C296.732 104.65 296.782 104.025 296.782 103.281ZM299.995 107.934C299.78 107.934 299.598 107.859 299.449 107.71C299.3 107.562 299.225 107.38 299.225 107.164C299.225 106.949 299.3 106.767 299.449 106.619C299.598 106.47 299.78 106.395 299.995 106.395C300.201 106.395 300.375 106.47 300.516 106.619C300.665 106.767 300.739 106.949 300.739 107.164C300.739 107.38 300.665 107.562 300.516 107.71C300.375 107.859 300.201 107.934 299.995 107.934ZM302.054 103.281C302.054 101.858 302.286 100.749 302.749 99.9551C303.212 99.1527 304.023 98.7515 305.181 98.7515C306.331 98.7515 307.137 99.1527 307.601 99.9551C308.064 100.749 308.295 101.858 308.295 103.281C308.295 104.728 308.064 105.853 307.601 106.656C307.137 107.458 306.331 107.859 305.181 107.859C304.023 107.859 303.212 107.458 302.749 106.656C302.286 105.853 302.054 104.728 302.054 103.281ZM307.179 103.281C307.179 102.561 307.129 101.953 307.03 101.457C306.939 100.952 306.744 100.547 306.447 100.241C306.157 99.9344 305.735 99.7814 305.181 99.7814C304.618 99.7814 304.188 99.9344 303.89 100.241C303.601 100.547 303.406 100.952 303.307 101.457C303.216 101.953 303.171 102.561 303.171 103.281C303.171 104.025 303.216 104.65 303.307 105.154C303.406 105.659 303.601 106.064 303.89 106.37C304.188 106.676 304.618 106.829 305.181 106.829C305.735 106.829 306.157 106.676 306.447 106.37C306.744 106.064 306.939 105.659 307.03 105.154C307.129 104.65 307.179 104.025 307.179 103.281ZM309.846 103.281C309.846 101.858 310.077 100.749 310.541 99.9551C311.004 99.1527 311.814 98.7515 312.973 98.7515C314.122 98.7515 314.929 99.1527 315.392 99.9551C315.856 100.749 316.087 101.858 316.087 103.281C316.087 104.728 315.856 105.853 315.392 106.656C314.929 107.458 314.122 107.859 312.973 107.859C311.814 107.859 311.004 107.458 310.541 106.656C310.077 105.853 309.846 104.728 309.846 103.281ZM314.97 103.281C314.97 102.561 314.921 101.953 314.821 101.457C314.73 100.952 314.536 100.547 314.238 100.241C313.949 99.9344 313.527 99.7814 312.973 99.7814C312.41 99.7814 311.98 99.9344 311.682 100.241C311.393 100.547 311.198 100.952 311.099 101.457C311.008 101.953 310.962 102.561 310.962 103.281C310.962 104.025 311.008 104.65 311.099 105.154C311.198 105.659 311.393 106.064 311.682 106.37C311.98 106.676 312.41 106.829 312.973 106.829C313.527 106.829 313.949 106.676 314.238 106.37C314.536 106.064 314.73 105.659 314.821 105.154C314.921 104.65 314.97 104.025 314.97 103.281Z" fill="#1A1A1A"/>
<rect x="245.962" y="117.289" width="70.9061" height="20.0906" rx="10.0453" fill="#FF3939" fill-opacity="0.05"/>
<path d="M272.438 124.658V125.314H269.752V127.397H271.932V128.053H269.752V130.836H268.945V124.658H272.438ZM273.11 128.39C273.11 127.893 273.211 127.459 273.412 127.087C273.613 126.709 273.887 126.416 274.236 126.209C274.59 126.003 274.983 125.899 275.415 125.899C275.84 125.899 276.21 125.991 276.523 126.174C276.836 126.357 277.069 126.587 277.223 126.865V125.979H278.038V130.836H277.223V129.932C277.063 130.216 276.824 130.452 276.505 130.641C276.192 130.824 275.825 130.916 275.406 130.916C274.975 130.916 274.585 130.809 274.236 130.597C273.887 130.384 273.613 130.086 273.412 129.701C273.211 129.317 273.11 128.88 273.11 128.39ZM277.223 128.399C277.223 128.032 277.149 127.713 277.001 127.441C276.854 127.169 276.653 126.963 276.399 126.821C276.15 126.673 275.876 126.599 275.574 126.599C275.273 126.599 274.998 126.67 274.75 126.812C274.502 126.954 274.304 127.161 274.156 127.432C274.008 127.704 273.935 128.023 273.935 128.39C273.935 128.762 274.008 129.087 274.156 129.365C274.304 129.636 274.502 129.846 274.75 129.994C274.998 130.136 275.273 130.207 275.574 130.207C275.876 130.207 276.15 130.136 276.399 129.994C276.653 129.846 276.854 129.636 277.001 129.365C277.149 129.087 277.223 128.765 277.223 128.399ZM279.818 125.19C279.664 125.19 279.534 125.137 279.428 125.03C279.322 124.924 279.268 124.794 279.268 124.641C279.268 124.487 279.322 124.357 279.428 124.251C279.534 124.144 279.664 124.091 279.818 124.091C279.966 124.091 280.09 124.144 280.19 124.251C280.297 124.357 280.35 124.487 280.35 124.641C280.35 124.794 280.297 124.924 280.19 125.03C280.09 125.137 279.966 125.19 279.818 125.19ZM280.208 125.979V130.836H279.401V125.979H280.208ZM282.389 124.277V130.836H281.583V124.277H282.389ZM288.195 128.221C288.195 128.375 288.186 128.537 288.169 128.709H284.287C284.316 129.187 284.479 129.563 284.774 129.834C285.075 130.1 285.439 130.233 285.864 130.233C286.213 130.233 286.502 130.153 286.733 129.994C286.969 129.828 287.135 129.61 287.229 129.338H288.098C287.968 129.805 287.708 130.186 287.318 130.481C286.928 130.771 286.443 130.916 285.864 130.916C285.403 130.916 284.99 130.812 284.623 130.605C284.263 130.399 283.979 130.106 283.773 129.728C283.566 129.344 283.462 128.901 283.462 128.399C283.462 127.896 283.563 127.456 283.764 127.078C283.965 126.7 284.245 126.41 284.606 126.209C284.972 126.003 285.392 125.899 285.864 125.899C286.325 125.899 286.733 126 287.087 126.2C287.442 126.401 287.714 126.679 287.903 127.034C288.098 127.382 288.195 127.778 288.195 128.221ZM287.362 128.053C287.362 127.746 287.294 127.483 287.158 127.264C287.022 127.04 286.836 126.871 286.6 126.759C286.37 126.641 286.112 126.582 285.829 126.582C285.421 126.582 285.073 126.712 284.783 126.972C284.499 127.232 284.337 127.592 284.295 128.053H287.362ZM288.959 128.39C288.959 127.893 289.059 127.459 289.26 127.087C289.461 126.709 289.736 126.416 290.084 126.209C290.439 126.003 290.835 125.899 291.272 125.899C291.65 125.899 292.002 125.988 292.327 126.165C292.652 126.336 292.9 126.564 293.071 126.847V124.277H293.887V130.836H293.071V129.923C292.912 130.213 292.675 130.452 292.362 130.641C292.049 130.824 291.683 130.916 291.263 130.916C290.832 130.916 290.439 130.809 290.084 130.597C289.736 130.384 289.461 130.086 289.26 129.701C289.059 129.317 288.959 128.88 288.959 128.39ZM293.071 128.399C293.071 128.032 292.997 127.713 292.85 127.441C292.702 127.169 292.501 126.963 292.247 126.821C291.999 126.673 291.724 126.599 291.423 126.599C291.121 126.599 290.846 126.67 290.598 126.812C290.35 126.954 290.152 127.161 290.004 127.432C289.857 127.704 289.783 128.023 289.783 128.39C289.783 128.762 289.857 129.087 290.004 129.365C290.152 129.636 290.35 129.846 290.598 129.994C290.846 130.136 291.121 130.207 291.423 130.207C291.724 130.207 291.999 130.136 292.247 129.994C292.501 129.846 292.702 129.636 292.85 129.365C292.997 129.087 293.071 128.765 293.071 128.399Z" fill="#FF3939"/>
</svg>
