<svg width="19" height="22" viewBox="0 0 19 22" fill="none" xmlns="http://www.w3.org/2000/svg">
<path id="Vector 3" d="M1 14.4508V18.7383C1 19.9874 2.0126 21 3.26171 21V21C4.51081 21 5.52341 19.9874 5.52341 18.7383V18.3371C5.52341 16.8665 6.71562 15.6743 8.18628 15.6743H9.45135C11.2923 15.6743 12.7847 14.1819 12.7847 12.3409V8.78332C12.7847 6.94237 11.2923 5.44998 9.45135 5.44998H3.22499C1.99616 5.44998 1 4.45382 1 3.22499V3.22499C1 1.99616 1.99616 1 3.22499 1H14.6667C16.5076 1 18 2.49238 18 4.33333V7.78415C18 9.62509 16.5076 11.1175 14.6667 11.1175H4.33333C2.49238 11.1175 1 12.6099 1 14.4508Z" stroke="#02B14F" stroke-width="1.66667"/>
</svg>
